%TF.GenerationSoftware,KiCad,Pcbnew,10.0.0*%
%TF.CreationDate,2026-10-05T23:18:50+05:30*%
%TF.ProjectId,Driver_Drowsiness_System,44726976-6572-45f4-9472-6f7773696e65,rev?*%
%TF.SameCoordinates,Original*%
%TF.FileFunction,Legend,Top*%
%TF.FilePolarity,Positive*%
%FSLAX46Y46*%
G04 Gerber Fmt 4.6, Leading zero omitted, Abs format (unit mm)*
G04 Created by KiCad (PCBNEW 10.0.0) date 2026-10-05 23:18:50*
%MOMM*%
%LPD*%
G01*
G04 APERTURE LIST*
%ADD10C,0.150000*%
%ADD11C,0.120000*%
G04 APERTURE END LIST*
D10*
X180405714Y-96509104D02*
X180881904Y-96509104D01*
X180310476Y-96794819D02*
X180643809Y-95794819D01*
X180643809Y-95794819D02*
X180977142Y-96794819D01*
X181834285Y-96794819D02*
X181262857Y-96794819D01*
X181548571Y-96794819D02*
X181548571Y-95794819D01*
X181548571Y-95794819D02*
X181453333Y-95937676D01*
X181453333Y-95937676D02*
X181358095Y-96032914D01*
X181358095Y-96032914D02*
X181262857Y-96080533D01*
X179858095Y-136434819D02*
X179858095Y-137244342D01*
X179858095Y-137244342D02*
X179905714Y-137339580D01*
X179905714Y-137339580D02*
X179953333Y-137387200D01*
X179953333Y-137387200D02*
X180048571Y-137434819D01*
X180048571Y-137434819D02*
X180239047Y-137434819D01*
X180239047Y-137434819D02*
X180334285Y-137387200D01*
X180334285Y-137387200D02*
X180381904Y-137339580D01*
X180381904Y-137339580D02*
X180429523Y-137244342D01*
X180429523Y-137244342D02*
X180429523Y-136434819D01*
X180858095Y-137387200D02*
X181000952Y-137434819D01*
X181000952Y-137434819D02*
X181239047Y-137434819D01*
X181239047Y-137434819D02*
X181334285Y-137387200D01*
X181334285Y-137387200D02*
X181381904Y-137339580D01*
X181381904Y-137339580D02*
X181429523Y-137244342D01*
X181429523Y-137244342D02*
X181429523Y-137149104D01*
X181429523Y-137149104D02*
X181381904Y-137053866D01*
X181381904Y-137053866D02*
X181334285Y-137006247D01*
X181334285Y-137006247D02*
X181239047Y-136958628D01*
X181239047Y-136958628D02*
X181048571Y-136911009D01*
X181048571Y-136911009D02*
X180953333Y-136863390D01*
X180953333Y-136863390D02*
X180905714Y-136815771D01*
X180905714Y-136815771D02*
X180858095Y-136720533D01*
X180858095Y-136720533D02*
X180858095Y-136625295D01*
X180858095Y-136625295D02*
X180905714Y-136530057D01*
X180905714Y-136530057D02*
X180953333Y-136482438D01*
X180953333Y-136482438D02*
X181048571Y-136434819D01*
X181048571Y-136434819D02*
X181286666Y-136434819D01*
X181286666Y-136434819D02*
X181429523Y-136482438D01*
X182191428Y-136911009D02*
X182334285Y-136958628D01*
X182334285Y-136958628D02*
X182381904Y-137006247D01*
X182381904Y-137006247D02*
X182429523Y-137101485D01*
X182429523Y-137101485D02*
X182429523Y-137244342D01*
X182429523Y-137244342D02*
X182381904Y-137339580D01*
X182381904Y-137339580D02*
X182334285Y-137387200D01*
X182334285Y-137387200D02*
X182239047Y-137434819D01*
X182239047Y-137434819D02*
X181858095Y-137434819D01*
X181858095Y-137434819D02*
X181858095Y-136434819D01*
X181858095Y-136434819D02*
X182191428Y-136434819D01*
X182191428Y-136434819D02*
X182286666Y-136482438D01*
X182286666Y-136482438D02*
X182334285Y-136530057D01*
X182334285Y-136530057D02*
X182381904Y-136625295D01*
X182381904Y-136625295D02*
X182381904Y-136720533D01*
X182381904Y-136720533D02*
X182334285Y-136815771D01*
X182334285Y-136815771D02*
X182286666Y-136863390D01*
X182286666Y-136863390D02*
X182191428Y-136911009D01*
X182191428Y-136911009D02*
X181858095Y-136911009D01*
X163833333Y-134324819D02*
X163500000Y-133848628D01*
X163261905Y-134324819D02*
X163261905Y-133324819D01*
X163261905Y-133324819D02*
X163642857Y-133324819D01*
X163642857Y-133324819D02*
X163738095Y-133372438D01*
X163738095Y-133372438D02*
X163785714Y-133420057D01*
X163785714Y-133420057D02*
X163833333Y-133515295D01*
X163833333Y-133515295D02*
X163833333Y-133658152D01*
X163833333Y-133658152D02*
X163785714Y-133753390D01*
X163785714Y-133753390D02*
X163738095Y-133801009D01*
X163738095Y-133801009D02*
X163642857Y-133848628D01*
X163642857Y-133848628D02*
X163261905Y-133848628D01*
X164785714Y-134324819D02*
X164214286Y-134324819D01*
X164500000Y-134324819D02*
X164500000Y-133324819D01*
X164500000Y-133324819D02*
X164404762Y-133467676D01*
X164404762Y-133467676D02*
X164309524Y-133562914D01*
X164309524Y-133562914D02*
X164214286Y-133610533D01*
X147994819Y-131508094D02*
X146994819Y-131508094D01*
X146994819Y-131508094D02*
X146994819Y-131269999D01*
X146994819Y-131269999D02*
X147042438Y-131127142D01*
X147042438Y-131127142D02*
X147137676Y-131031904D01*
X147137676Y-131031904D02*
X147232914Y-130984285D01*
X147232914Y-130984285D02*
X147423390Y-130936666D01*
X147423390Y-130936666D02*
X147566247Y-130936666D01*
X147566247Y-130936666D02*
X147756723Y-130984285D01*
X147756723Y-130984285D02*
X147851961Y-131031904D01*
X147851961Y-131031904D02*
X147947200Y-131127142D01*
X147947200Y-131127142D02*
X147994819Y-131269999D01*
X147994819Y-131269999D02*
X147994819Y-131508094D01*
X147994819Y-129984285D02*
X147994819Y-130555713D01*
X147994819Y-130269999D02*
X146994819Y-130269999D01*
X146994819Y-130269999D02*
X147137676Y-130365237D01*
X147137676Y-130365237D02*
X147232914Y-130460475D01*
X147232914Y-130460475D02*
X147280533Y-130555713D01*
X156666667Y-93157200D02*
X156809524Y-93204819D01*
X156809524Y-93204819D02*
X157047619Y-93204819D01*
X157047619Y-93204819D02*
X157142857Y-93157200D01*
X157142857Y-93157200D02*
X157190476Y-93109580D01*
X157190476Y-93109580D02*
X157238095Y-93014342D01*
X157238095Y-93014342D02*
X157238095Y-92919104D01*
X157238095Y-92919104D02*
X157190476Y-92823866D01*
X157190476Y-92823866D02*
X157142857Y-92776247D01*
X157142857Y-92776247D02*
X157047619Y-92728628D01*
X157047619Y-92728628D02*
X156857143Y-92681009D01*
X156857143Y-92681009D02*
X156761905Y-92633390D01*
X156761905Y-92633390D02*
X156714286Y-92585771D01*
X156714286Y-92585771D02*
X156666667Y-92490533D01*
X156666667Y-92490533D02*
X156666667Y-92395295D01*
X156666667Y-92395295D02*
X156714286Y-92300057D01*
X156714286Y-92300057D02*
X156761905Y-92252438D01*
X156761905Y-92252438D02*
X156857143Y-92204819D01*
X156857143Y-92204819D02*
X157095238Y-92204819D01*
X157095238Y-92204819D02*
X157238095Y-92252438D01*
X157571429Y-92204819D02*
X157809524Y-93204819D01*
X157809524Y-93204819D02*
X158000000Y-92490533D01*
X158000000Y-92490533D02*
X158190476Y-93204819D01*
X158190476Y-93204819D02*
X158428572Y-92204819D01*
X159333333Y-93204819D02*
X158761905Y-93204819D01*
X159047619Y-93204819D02*
X159047619Y-92204819D01*
X159047619Y-92204819D02*
X158952381Y-92347676D01*
X158952381Y-92347676D02*
X158857143Y-92442914D01*
X158857143Y-92442914D02*
X158761905Y-92490533D01*
X152469047Y-121681009D02*
X152611904Y-121728628D01*
X152611904Y-121728628D02*
X152659523Y-121776247D01*
X152659523Y-121776247D02*
X152707142Y-121871485D01*
X152707142Y-121871485D02*
X152707142Y-122014342D01*
X152707142Y-122014342D02*
X152659523Y-122109580D01*
X152659523Y-122109580D02*
X152611904Y-122157200D01*
X152611904Y-122157200D02*
X152516666Y-122204819D01*
X152516666Y-122204819D02*
X152135714Y-122204819D01*
X152135714Y-122204819D02*
X152135714Y-121204819D01*
X152135714Y-121204819D02*
X152469047Y-121204819D01*
X152469047Y-121204819D02*
X152564285Y-121252438D01*
X152564285Y-121252438D02*
X152611904Y-121300057D01*
X152611904Y-121300057D02*
X152659523Y-121395295D01*
X152659523Y-121395295D02*
X152659523Y-121490533D01*
X152659523Y-121490533D02*
X152611904Y-121585771D01*
X152611904Y-121585771D02*
X152564285Y-121633390D01*
X152564285Y-121633390D02*
X152469047Y-121681009D01*
X152469047Y-121681009D02*
X152135714Y-121681009D01*
X153040476Y-121204819D02*
X153707142Y-121204819D01*
X153707142Y-121204819D02*
X153040476Y-122204819D01*
X153040476Y-122204819D02*
X153707142Y-122204819D01*
X154611904Y-122204819D02*
X154040476Y-122204819D01*
X154326190Y-122204819D02*
X154326190Y-121204819D01*
X154326190Y-121204819D02*
X154230952Y-121347676D01*
X154230952Y-121347676D02*
X154135714Y-121442914D01*
X154135714Y-121442914D02*
X154040476Y-121490533D01*
X156779048Y-117163866D02*
X157540953Y-117163866D01*
X157160000Y-117544819D02*
X157160000Y-116782914D01*
%TO.C,A1*%
D11*
X172100000Y-97480000D02*
X172100000Y-100150000D01*
X172100000Y-102690000D02*
X172100000Y-140920000D01*
X172100000Y-140920000D02*
X177180000Y-140920000D01*
X174770000Y-100150000D02*
X172100000Y-100150000D01*
X174770000Y-102690000D02*
X172100000Y-102690000D01*
X174770000Y-102690000D02*
X174770000Y-100150000D01*
X174770000Y-102690000D02*
X174770000Y-138250000D01*
X174770000Y-138250000D02*
X172100000Y-138250000D01*
X177180000Y-133040000D02*
X185060000Y-133040000D01*
X177180000Y-143460000D02*
X177180000Y-133040000D01*
X185060000Y-133040000D02*
X185060000Y-143460000D01*
X185060000Y-143460000D02*
X177180000Y-143460000D01*
X187470000Y-100150000D02*
X187470000Y-138250000D01*
X187470000Y-100150000D02*
X190140000Y-100150000D01*
X187470000Y-138250000D02*
X190140000Y-138250000D01*
X190140000Y-97480000D02*
X172100000Y-97480000D01*
X190140000Y-140920000D02*
X185060000Y-140920000D01*
X190140000Y-140920000D02*
X190140000Y-97480000D01*
%TO.C,R1*%
X160730000Y-130130000D02*
X160730000Y-130460000D01*
X160730000Y-132870000D02*
X160730000Y-132540000D01*
X167270000Y-130130000D02*
X160730000Y-130130000D01*
X167270000Y-130460000D02*
X167270000Y-130130000D01*
X167270000Y-132540000D02*
X167270000Y-132870000D01*
X167270000Y-132870000D02*
X160730000Y-132870000D01*
%TO.C,D1*%
X149955000Y-133330000D02*
X153045000Y-133330000D01*
X149955170Y-133330000D02*
G75*
G02*
X151500000Y-127780000I1544830J2560000D01*
G01*
X151500000Y-127780000D02*
G75*
G02*
X153044830Y-133330000I0J-2990000D01*
G01*
X154000000Y-130770000D02*
G75*
G02*
X149000000Y-130770000I-2500000J0D01*
G01*
X149000000Y-130770000D02*
G75*
G02*
X154000000Y-130770000I2500000J0D01*
G01*
%TO.C,SW1*%
X154500000Y-96250000D02*
X154500000Y-97750000D01*
X155750000Y-100250000D02*
X160250000Y-100250000D01*
X160250000Y-93750000D02*
X155750000Y-93750000D01*
X161500000Y-97750000D02*
X161500000Y-96250000D01*
%TO.C,BZ1*%
X159450000Y-114550000D02*
G75*
G02*
X147250000Y-114550000I-6100000J0D01*
G01*
X147250000Y-114550000D02*
G75*
G02*
X159450000Y-114550000I6100000J0D01*
G01*
%TD*%
M02*
