%TF.GenerationSoftware,KiCad,Pcbnew,10.0.0*%
%TF.CreationDate,2026-10-05T23:18:50+05:30*%
%TF.ProjectId,Driver_Drowsiness_System,44726976-6572-45f4-9472-6f7773696e65,rev?*%
%TF.SameCoordinates,Original*%
%TF.FileFunction,Copper,L1,Top*%
%TF.FilePolarity,Positive*%
%FSLAX46Y46*%
G04 Gerber Fmt 4.6, Leading zero omitted, Abs format (unit mm)*
G04 Created by KiCad (PCBNEW 10.0.0) date 2026-10-05 23:18:50*
%MOMM*%
%LPD*%
G01*
G04 APERTURE LIST*
%TA.AperFunction,ComponentPad*%
%ADD10R,1.600000X1.600000*%
%TD*%
%TA.AperFunction,ComponentPad*%
%ADD11O,1.600000X1.600000*%
%TD*%
%TA.AperFunction,ComponentPad*%
%ADD12C,1.600000*%
%TD*%
%TA.AperFunction,ComponentPad*%
%ADD13R,1.800000X1.800000*%
%TD*%
%TA.AperFunction,ComponentPad*%
%ADD14C,1.800000*%
%TD*%
%TA.AperFunction,ComponentPad*%
%ADD15C,2.000000*%
%TD*%
%TA.AperFunction,ComponentPad*%
%ADD16R,2.000000X2.000000*%
%TD*%
%TA.AperFunction,Conductor*%
%ADD17C,0.200000*%
%TD*%
G04 APERTURE END LIST*
D10*
%TO.P,A1,1,D1/TX_1*%
%TO.N,unconnected-(A1-D1{slash}TX-Pad1)*%
X173500000Y-101420000D03*
D11*
%TO.P,A1,2,D0/RX_2*%
%TO.N,unconnected-(A1-D0{slash}RX-Pad2)*%
X173500000Y-103960000D03*
%TO.P,A1,3,~{RESET}_3*%
%TO.N,unconnected-(A1-~{RESET}-Pad3)*%
X173500000Y-106500000D03*
%TO.P,A1,4,GND_4*%
%TO.N,unconnected-(A1-GND-Pad4)*%
X173500000Y-109040000D03*
%TO.P,A1,5,D2_5*%
%TO.N,Net-(A1-D2)*%
X173500000Y-111580000D03*
%TO.P,A1,6,D3_6*%
%TO.N,unconnected-(A1-D3-Pad6)*%
X173500000Y-114120000D03*
%TO.P,A1,7,D4_7*%
%TO.N,unconnected-(A1-D4-Pad7)*%
X173500000Y-116660000D03*
%TO.P,A1,8,D5_8*%
%TO.N,unconnected-(A1-D5-Pad8)*%
X173500000Y-119200000D03*
%TO.P,A1,9,D6_9*%
%TO.N,unconnected-(A1-D6-Pad9)*%
X173500000Y-121740000D03*
%TO.P,A1,10,D7_10*%
%TO.N,unconnected-(A1-D7-Pad10)*%
X173500000Y-124280000D03*
%TO.P,A1,11,D8_11*%
%TO.N,Net-(A1-D8)*%
X173500000Y-126820000D03*
%TO.P,A1,12,D9_12*%
%TO.N,Net-(A1-D9)*%
X173500000Y-129360000D03*
%TO.P,A1,13,D10_13*%
%TO.N,unconnected-(A1-D10-Pad13)*%
X173500000Y-131900000D03*
%TO.P,A1,14,D11_14*%
%TO.N,unconnected-(A1-D11-Pad14)*%
X173500000Y-134440000D03*
%TO.P,A1,15,D12_15*%
%TO.N,unconnected-(A1-D12-Pad15)*%
X173500000Y-136980000D03*
%TO.P,A1,16,D13_16*%
%TO.N,unconnected-(A1-D13-Pad16)*%
X188740000Y-136980000D03*
%TO.P,A1,17,3V3_17*%
%TO.N,unconnected-(A1-3V3-Pad17)*%
X188740000Y-134440000D03*
%TO.P,A1,18,AREF_18*%
%TO.N,unconnected-(A1-AREF-Pad18)*%
X188740000Y-131900000D03*
%TO.P,A1,19,A0_19*%
%TO.N,unconnected-(A1-A0-Pad19)*%
X188740000Y-129360000D03*
%TO.P,A1,20,A1_20*%
%TO.N,unconnected-(A1-A1-Pad20)*%
X188740000Y-126820000D03*
%TO.P,A1,21,A2_21*%
%TO.N,unconnected-(A1-A2-Pad21)*%
X188740000Y-124280000D03*
%TO.P,A1,22,A3_22*%
%TO.N,unconnected-(A1-A3-Pad22)*%
X188740000Y-121740000D03*
%TO.P,A1,23,A4_23*%
%TO.N,unconnected-(A1-A4-Pad23)*%
X188740000Y-119200000D03*
%TO.P,A1,24,A5_24*%
%TO.N,unconnected-(A1-A5-Pad24)*%
X188740000Y-116660000D03*
%TO.P,A1,25,A6_25*%
%TO.N,unconnected-(A1-A6-Pad25)*%
X188740000Y-114120000D03*
%TO.P,A1,26,A7_26*%
%TO.N,unconnected-(A1-A7-Pad26)*%
X188740000Y-111580000D03*
%TO.P,A1,27,+5V_27*%
%TO.N,unconnected-(A1-+5V-Pad27)*%
X188740000Y-109040000D03*
%TO.P,A1,28,~{RESET}_28*%
%TO.N,unconnected-(A1-~{RESET}-Pad28)*%
X188740000Y-106500000D03*
%TO.P,A1,29,GND_29*%
%TO.N,unconnected-(A1-GND-Pad29)*%
X188740000Y-103960000D03*
%TO.P,A1,30,VIN_30*%
%TO.N,unconnected-(A1-VIN-Pad30)*%
X188740000Y-101420000D03*
%TD*%
D12*
%TO.P,R1,1*%
%TO.N,Net-(A1-D8)*%
X167810000Y-131500000D03*
%TO.P,R1,2*%
%TO.N,Net-(D1-K)*%
X160190000Y-131500000D03*
%TD*%
D13*
%TO.P,D1,1,K_1*%
%TO.N,Net-(D1-K)*%
X151500000Y-132040000D03*
D14*
%TO.P,D1,2,A_2*%
%TO.N,GND*%
X151500000Y-129500000D03*
%TD*%
D15*
%TO.P,SW1,1,1_1*%
%TO.N,GND*%
X154750000Y-94750000D03*
X161250000Y-94750000D03*
%TO.P,SW1,2,2_2*%
%TO.N,Net-(A1-D2)*%
X154750000Y-99250000D03*
X161250000Y-99250000D03*
%TD*%
D16*
%TO.P,BZ1,1,+_1*%
%TO.N,Net-(A1-D9)*%
X157150000Y-114550000D03*
D15*
%TO.P,BZ1,2,-_2*%
%TO.N,GND*%
X149550000Y-114550000D03*
%TD*%
%TO.N,Net-(A1-D2)*%
D17*
X173500000Y-111580000D02*
X173420000Y-111500000D01*
X161250000Y-99250000D02*
X161250000Y-111250000D01*
X161250000Y-111250000D02*
X161000000Y-111500000D01*
X161250000Y-99250000D02*
X154750000Y-99250000D01*
X161250000Y-99250000D02*
X160500000Y-100000000D01*
X161080000Y-111580000D02*
X173500000Y-111580000D01*
X161000000Y-111500000D02*
X161080000Y-111580000D01*
X173500000Y-111500000D02*
X173500000Y-111580000D01*
%TO.N,Net-(A1-D8)*%
X168510000Y-130800000D02*
X167810000Y-131500000D01*
X174499999Y-130800000D02*
X168510000Y-130800000D01*
X174600000Y-127920000D02*
X174600000Y-130699999D01*
X173500000Y-126820000D02*
X174600000Y-127920000D01*
X174600000Y-130699999D02*
X174499999Y-130800000D01*
%TO.N,Net-(A1-D9)*%
X157150000Y-114550000D02*
X157150000Y-126650000D01*
X157150000Y-126650000D02*
X159860000Y-129360000D01*
X159860000Y-129360000D02*
X173500000Y-129360000D01*
%TO.N,Net-(D1-K)*%
X152040000Y-131500000D02*
X151500000Y-132040000D01*
X160190000Y-131500000D02*
X152040000Y-131500000D01*
%TO.N,GND*%
X149500000Y-114500000D02*
X149550000Y-114550000D01*
%TD*%
%TA.AperFunction,Conductor*%
%TO.N,GND*%
G36*
X193442539Y-89020185D02*
G01*
X193488294Y-89072989D01*
X193499500Y-89124500D01*
X193499500Y-147375500D01*
X193479815Y-147442539D01*
X193427011Y-147488294D01*
X193375500Y-147499500D01*
X144624500Y-147499500D01*
X144557461Y-147479815D01*
X144511706Y-147427011D01*
X144500500Y-147375500D01*
X144500500Y-131092135D01*
X150099500Y-131092135D01*
X150099500Y-132987870D01*
X150099501Y-132987876D01*
X150105908Y-133047483D01*
X150156202Y-133182328D01*
X150156206Y-133182335D01*
X150242452Y-133297544D01*
X150242455Y-133297547D01*
X150357664Y-133383793D01*
X150357671Y-133383797D01*
X150492517Y-133434091D01*
X150492516Y-133434091D01*
X150499444Y-133434835D01*
X150552127Y-133440500D01*
X152447872Y-133440499D01*
X152507483Y-133434091D01*
X152642331Y-133383796D01*
X152757546Y-133297546D01*
X152843796Y-133182331D01*
X152894091Y-133047483D01*
X152900500Y-132987873D01*
X152900500Y-132224500D01*
X152920185Y-132157461D01*
X152972989Y-132111706D01*
X153024500Y-132100500D01*
X158960398Y-132100500D01*
X159027437Y-132120185D01*
X159070883Y-132168205D01*
X159077715Y-132181614D01*
X159198028Y-132347213D01*
X159342786Y-132491971D01*
X159497749Y-132604556D01*
X159508390Y-132612287D01*
X159624607Y-132671503D01*
X159690776Y-132705218D01*
X159690778Y-132705218D01*
X159690781Y-132705220D01*
X159795137Y-132739127D01*
X159885465Y-132768477D01*
X159986557Y-132784488D01*
X160087648Y-132800500D01*
X160087649Y-132800500D01*
X160292351Y-132800500D01*
X160292352Y-132800500D01*
X160494534Y-132768477D01*
X160689219Y-132705220D01*
X160871610Y-132612287D01*
X160964590Y-132544732D01*
X161037213Y-132491971D01*
X161037215Y-132491968D01*
X161037219Y-132491966D01*
X161181966Y-132347219D01*
X161181968Y-132347215D01*
X161181971Y-132347213D01*
X161234732Y-132274590D01*
X161302287Y-132181610D01*
X161395220Y-131999219D01*
X161458477Y-131804534D01*
X161490500Y-131602352D01*
X161490500Y-131397648D01*
X161479594Y-131328789D01*
X161458477Y-131195465D01*
X161424900Y-131092127D01*
X161395220Y-131000781D01*
X161395218Y-131000778D01*
X161395218Y-131000776D01*
X161347960Y-130908028D01*
X161302287Y-130818390D01*
X161294556Y-130807749D01*
X161181971Y-130652786D01*
X161037213Y-130508028D01*
X160871613Y-130387715D01*
X160871612Y-130387714D01*
X160871610Y-130387713D01*
X160814653Y-130358691D01*
X160689223Y-130294781D01*
X160494534Y-130231522D01*
X160358931Y-130210045D01*
X160339532Y-130206972D01*
X160276398Y-130177044D01*
X160239467Y-130117732D01*
X160240465Y-130047870D01*
X160279075Y-129989637D01*
X160343038Y-129961523D01*
X160358931Y-129960500D01*
X167641069Y-129960500D01*
X167708108Y-129980185D01*
X167753863Y-130032989D01*
X167763807Y-130102147D01*
X167734782Y-130165703D01*
X167676004Y-130203477D01*
X167660469Y-130206972D01*
X167643429Y-130209671D01*
X167505465Y-130231522D01*
X167310776Y-130294781D01*
X167128386Y-130387715D01*
X166962786Y-130508028D01*
X166818028Y-130652786D01*
X166697715Y-130818386D01*
X166604781Y-131000776D01*
X166541522Y-131195465D01*
X166509500Y-131397648D01*
X166509500Y-131602351D01*
X166541522Y-131804534D01*
X166604781Y-131999223D01*
X166656385Y-132100500D01*
X166685408Y-132157461D01*
X166697715Y-132181613D01*
X166818028Y-132347213D01*
X166962786Y-132491971D01*
X167117749Y-132604556D01*
X167128390Y-132612287D01*
X167244607Y-132671503D01*
X167310776Y-132705218D01*
X167310778Y-132705218D01*
X167310781Y-132705220D01*
X167415137Y-132739127D01*
X167505465Y-132768477D01*
X167606557Y-132784488D01*
X167707648Y-132800500D01*
X167707649Y-132800500D01*
X167912351Y-132800500D01*
X167912352Y-132800500D01*
X168114534Y-132768477D01*
X168309219Y-132705220D01*
X168491610Y-132612287D01*
X168584590Y-132544732D01*
X168657213Y-132491971D01*
X168657215Y-132491968D01*
X168657219Y-132491966D01*
X168801966Y-132347219D01*
X168801968Y-132347215D01*
X168801971Y-132347213D01*
X168854732Y-132274590D01*
X168922287Y-132181610D01*
X169015220Y-131999219D01*
X169078477Y-131804534D01*
X169110500Y-131602352D01*
X169110500Y-131524500D01*
X169130185Y-131457461D01*
X169182989Y-131411706D01*
X169234500Y-131400500D01*
X172124199Y-131400500D01*
X172191238Y-131420185D01*
X172236993Y-131472989D01*
X172246937Y-131542147D01*
X172242130Y-131562817D01*
X172231524Y-131595457D01*
X172231523Y-131595464D01*
X172199500Y-131797648D01*
X172199500Y-132002351D01*
X172231522Y-132204534D01*
X172294781Y-132399223D01*
X172387715Y-132581613D01*
X172508028Y-132747213D01*
X172652786Y-132891971D01*
X172807749Y-133004556D01*
X172818390Y-133012287D01*
X172887464Y-133047482D01*
X172911080Y-133059515D01*
X172961876Y-133107490D01*
X172978671Y-133175311D01*
X172956134Y-133241446D01*
X172911080Y-133280485D01*
X172818386Y-133327715D01*
X172652786Y-133448028D01*
X172508028Y-133592786D01*
X172387715Y-133758386D01*
X172294781Y-133940776D01*
X172231522Y-134135465D01*
X172199500Y-134337648D01*
X172199500Y-134542351D01*
X172231522Y-134744534D01*
X172294781Y-134939223D01*
X172387715Y-135121613D01*
X172508028Y-135287213D01*
X172652786Y-135431971D01*
X172807749Y-135544556D01*
X172818390Y-135552287D01*
X172909840Y-135598883D01*
X172911080Y-135599515D01*
X172961876Y-135647490D01*
X172978671Y-135715311D01*
X172956134Y-135781446D01*
X172911080Y-135820485D01*
X172818386Y-135867715D01*
X172652786Y-135988028D01*
X172508028Y-136132786D01*
X172387715Y-136298386D01*
X172294781Y-136480776D01*
X172231522Y-136675465D01*
X172199500Y-136877648D01*
X172199500Y-137082351D01*
X172231522Y-137284534D01*
X172294781Y-137479223D01*
X172387715Y-137661613D01*
X172508028Y-137827213D01*
X172652786Y-137971971D01*
X172807749Y-138084556D01*
X172818390Y-138092287D01*
X172934607Y-138151503D01*
X173000776Y-138185218D01*
X173000778Y-138185218D01*
X173000781Y-138185220D01*
X173105137Y-138219127D01*
X173195465Y-138248477D01*
X173296557Y-138264488D01*
X173397648Y-138280500D01*
X173397649Y-138280500D01*
X173602351Y-138280500D01*
X173602352Y-138280500D01*
X173804534Y-138248477D01*
X173999219Y-138185220D01*
X174181610Y-138092287D01*
X174274590Y-138024732D01*
X174347213Y-137971971D01*
X174347215Y-137971968D01*
X174347219Y-137971966D01*
X174491966Y-137827219D01*
X174491968Y-137827215D01*
X174491971Y-137827213D01*
X174544732Y-137754590D01*
X174612287Y-137661610D01*
X174705220Y-137479219D01*
X174768477Y-137284534D01*
X174800500Y-137082352D01*
X174800500Y-136877648D01*
X174768477Y-136675466D01*
X174705220Y-136480781D01*
X174705218Y-136480778D01*
X174705218Y-136480776D01*
X174671503Y-136414607D01*
X174612287Y-136298390D01*
X174604556Y-136287749D01*
X174491971Y-136132786D01*
X174347213Y-135988028D01*
X174181614Y-135867715D01*
X174175006Y-135864348D01*
X174088917Y-135820483D01*
X174038123Y-135772511D01*
X174021328Y-135704690D01*
X174043865Y-135638555D01*
X174088917Y-135599516D01*
X174181610Y-135552287D01*
X174202770Y-135536913D01*
X174347213Y-135431971D01*
X174347215Y-135431968D01*
X174347219Y-135431966D01*
X174491966Y-135287219D01*
X174491968Y-135287215D01*
X174491971Y-135287213D01*
X174544732Y-135214590D01*
X174612287Y-135121610D01*
X174705220Y-134939219D01*
X174768477Y-134744534D01*
X174800500Y-134542352D01*
X174800500Y-134337648D01*
X174768477Y-134135466D01*
X174705220Y-133940781D01*
X174705218Y-133940778D01*
X174705218Y-133940776D01*
X174671503Y-133874607D01*
X174612287Y-133758390D01*
X174604556Y-133747749D01*
X174491971Y-133592786D01*
X174347213Y-133448028D01*
X174181614Y-133327715D01*
X174175006Y-133324348D01*
X174088917Y-133280483D01*
X174038123Y-133232511D01*
X174021328Y-133164690D01*
X174043865Y-133098555D01*
X174088917Y-133059516D01*
X174181610Y-133012287D01*
X174202770Y-132996913D01*
X174347213Y-132891971D01*
X174347215Y-132891968D01*
X174347219Y-132891966D01*
X174491966Y-132747219D01*
X174491968Y-132747215D01*
X174491971Y-132747213D01*
X174544732Y-132674590D01*
X174612287Y-132581610D01*
X174705220Y-132399219D01*
X174768477Y-132204534D01*
X174800500Y-132002352D01*
X174800500Y-131797648D01*
X174769568Y-131602352D01*
X174768477Y-131595465D01*
X174756957Y-131560011D01*
X174729170Y-131474494D01*
X174727176Y-131404656D01*
X174763256Y-131344823D01*
X174785091Y-131328798D01*
X174868715Y-131280520D01*
X174980519Y-131168716D01*
X175080520Y-131068715D01*
X175159577Y-130931783D01*
X175189961Y-130818390D01*
X175200501Y-130779056D01*
X175200501Y-130620941D01*
X175200500Y-130620937D01*
X175200500Y-128009059D01*
X175200501Y-128009046D01*
X175200501Y-127840945D01*
X175200501Y-127840943D01*
X175159577Y-127688215D01*
X175106994Y-127597139D01*
X175080520Y-127551284D01*
X174968716Y-127439480D01*
X174968713Y-127439478D01*
X174794077Y-127264842D01*
X174760592Y-127203519D01*
X174763828Y-127138841D01*
X174768477Y-127124534D01*
X174800500Y-126922352D01*
X174800500Y-126717648D01*
X174768477Y-126515466D01*
X174705220Y-126320781D01*
X174705218Y-126320778D01*
X174705218Y-126320776D01*
X174671503Y-126254607D01*
X174612287Y-126138390D01*
X174604556Y-126127749D01*
X174491971Y-125972786D01*
X174347213Y-125828028D01*
X174181614Y-125707715D01*
X174175006Y-125704348D01*
X174088917Y-125660483D01*
X174038123Y-125612511D01*
X174021328Y-125544690D01*
X174043865Y-125478555D01*
X174088917Y-125439516D01*
X174181610Y-125392287D01*
X174202770Y-125376913D01*
X174347213Y-125271971D01*
X174347215Y-125271968D01*
X174347219Y-125271966D01*
X174491966Y-125127219D01*
X174491968Y-125127215D01*
X174491971Y-125127213D01*
X174544732Y-125054590D01*
X174612287Y-124961610D01*
X174705220Y-124779219D01*
X174768477Y-124584534D01*
X174800500Y-124382352D01*
X174800500Y-124177648D01*
X174768477Y-123975466D01*
X174705220Y-123780781D01*
X174705218Y-123780778D01*
X174705218Y-123780776D01*
X174671503Y-123714607D01*
X174612287Y-123598390D01*
X174604556Y-123587749D01*
X174491971Y-123432786D01*
X174347213Y-123288028D01*
X174181614Y-123167715D01*
X174175006Y-123164348D01*
X174088917Y-123120483D01*
X174038123Y-123072511D01*
X174021328Y-123004690D01*
X174043865Y-122938555D01*
X174088917Y-122899516D01*
X174181610Y-122852287D01*
X174202770Y-122836913D01*
X174347213Y-122731971D01*
X174347215Y-122731968D01*
X174347219Y-122731966D01*
X174491966Y-122587219D01*
X174491968Y-122587215D01*
X174491971Y-122587213D01*
X174544732Y-122514590D01*
X174612287Y-122421610D01*
X174705220Y-122239219D01*
X174768477Y-122044534D01*
X174800500Y-121842352D01*
X174800500Y-121637648D01*
X174768477Y-121435466D01*
X174705220Y-121240781D01*
X174705218Y-121240778D01*
X174705218Y-121240776D01*
X174671503Y-121174607D01*
X174612287Y-121058390D01*
X174604556Y-121047749D01*
X174491971Y-120892786D01*
X174347213Y-120748028D01*
X174181614Y-120627715D01*
X174175006Y-120624348D01*
X174088917Y-120580483D01*
X174038123Y-120532511D01*
X174021328Y-120464690D01*
X174043865Y-120398555D01*
X174088917Y-120359516D01*
X174181610Y-120312287D01*
X174202770Y-120296913D01*
X174347213Y-120191971D01*
X174347215Y-120191968D01*
X174347219Y-120191966D01*
X174491966Y-120047219D01*
X174491968Y-120047215D01*
X174491971Y-120047213D01*
X174544732Y-119974590D01*
X174612287Y-119881610D01*
X174705220Y-119699219D01*
X174768477Y-119504534D01*
X174800500Y-119302352D01*
X174800500Y-119097648D01*
X174768477Y-118895466D01*
X174705220Y-118700781D01*
X174705218Y-118700778D01*
X174705218Y-118700776D01*
X174671503Y-118634607D01*
X174612287Y-118518390D01*
X174604556Y-118507749D01*
X174491971Y-118352786D01*
X174347213Y-118208028D01*
X174181614Y-118087715D01*
X174175006Y-118084348D01*
X174088917Y-118040483D01*
X174038123Y-117992511D01*
X174021328Y-117924690D01*
X174043865Y-117858555D01*
X174088917Y-117819516D01*
X174181610Y-117772287D01*
X174202770Y-117756913D01*
X174347213Y-117651971D01*
X174347215Y-117651968D01*
X174347219Y-117651966D01*
X174491966Y-117507219D01*
X174491968Y-117507215D01*
X174491971Y-117507213D01*
X174544732Y-117434590D01*
X174612287Y-117341610D01*
X174705220Y-117159219D01*
X174768477Y-116964534D01*
X174800500Y-116762352D01*
X174800500Y-116557648D01*
X174768477Y-116355466D01*
X174705220Y-116160781D01*
X174705218Y-116160778D01*
X174705218Y-116160776D01*
X174645762Y-116044089D01*
X174612287Y-115978390D01*
X174604556Y-115967749D01*
X174491971Y-115812786D01*
X174347213Y-115668028D01*
X174181614Y-115547715D01*
X174175006Y-115544348D01*
X174088917Y-115500483D01*
X174038123Y-115452511D01*
X174021328Y-115384690D01*
X174043865Y-115318555D01*
X174088917Y-115279516D01*
X174181610Y-115232287D01*
X174202770Y-115216913D01*
X174347213Y-115111971D01*
X174347215Y-115111968D01*
X174347219Y-115111966D01*
X174491966Y-114967219D01*
X174491968Y-114967215D01*
X174491971Y-114967213D01*
X174572039Y-114857007D01*
X174612287Y-114801610D01*
X174705220Y-114619219D01*
X174768477Y-114424534D01*
X174800500Y-114222352D01*
X174800500Y-114017648D01*
X174768477Y-113815466D01*
X174751699Y-113763830D01*
X174724752Y-113680894D01*
X174705220Y-113620781D01*
X174705218Y-113620778D01*
X174705218Y-113620776D01*
X174671503Y-113554607D01*
X174612287Y-113438390D01*
X174604556Y-113427749D01*
X174491971Y-113272786D01*
X174347213Y-113128028D01*
X174181614Y-113007715D01*
X174175006Y-113004348D01*
X174088917Y-112960483D01*
X174038123Y-112912511D01*
X174021328Y-112844690D01*
X174043865Y-112778555D01*
X174088917Y-112739516D01*
X174181610Y-112692287D01*
X174202770Y-112676913D01*
X174347213Y-112571971D01*
X174347215Y-112571968D01*
X174347219Y-112571966D01*
X174491966Y-112427219D01*
X174491968Y-112427215D01*
X174491971Y-112427213D01*
X174544732Y-112354590D01*
X174612287Y-112261610D01*
X174705220Y-112079219D01*
X174768477Y-111884534D01*
X174800500Y-111682352D01*
X174800500Y-111477648D01*
X174768477Y-111275466D01*
X174705220Y-111080781D01*
X174705218Y-111080778D01*
X174705218Y-111080776D01*
X174671503Y-111014607D01*
X174612287Y-110898390D01*
X174581126Y-110855500D01*
X174491971Y-110732786D01*
X174347213Y-110588028D01*
X174181614Y-110467715D01*
X174175006Y-110464348D01*
X174088917Y-110420483D01*
X174038123Y-110372511D01*
X174021328Y-110304690D01*
X174043865Y-110238555D01*
X174088917Y-110199516D01*
X174181610Y-110152287D01*
X174202770Y-110136913D01*
X174347213Y-110031971D01*
X174347215Y-110031968D01*
X174347219Y-110031966D01*
X174491966Y-109887219D01*
X174491968Y-109887215D01*
X174491971Y-109887213D01*
X174544732Y-109814590D01*
X174612287Y-109721610D01*
X174705220Y-109539219D01*
X174768477Y-109344534D01*
X174800500Y-109142352D01*
X174800500Y-108937648D01*
X174768477Y-108735466D01*
X174705220Y-108540781D01*
X174705218Y-108540778D01*
X174705218Y-108540776D01*
X174671503Y-108474607D01*
X174612287Y-108358390D01*
X174604556Y-108347749D01*
X174491971Y-108192786D01*
X174347213Y-108048028D01*
X174181614Y-107927715D01*
X174175006Y-107924348D01*
X174088917Y-107880483D01*
X174038123Y-107832511D01*
X174021328Y-107764690D01*
X174043865Y-107698555D01*
X174088917Y-107659516D01*
X174181610Y-107612287D01*
X174202770Y-107596913D01*
X174347213Y-107491971D01*
X174347215Y-107491968D01*
X174347219Y-107491966D01*
X174491966Y-107347219D01*
X174491968Y-107347215D01*
X174491971Y-107347213D01*
X174544732Y-107274590D01*
X174612287Y-107181610D01*
X174705220Y-106999219D01*
X174768477Y-106804534D01*
X174800500Y-106602352D01*
X174800500Y-106397648D01*
X174768477Y-106195466D01*
X174705220Y-106000781D01*
X174705218Y-106000778D01*
X174705218Y-106000776D01*
X174671503Y-105934607D01*
X174612287Y-105818390D01*
X174604556Y-105807749D01*
X174491971Y-105652786D01*
X174347213Y-105508028D01*
X174181614Y-105387715D01*
X174175006Y-105384348D01*
X174088917Y-105340483D01*
X174038123Y-105292511D01*
X174021328Y-105224690D01*
X174043865Y-105158555D01*
X174088917Y-105119516D01*
X174181610Y-105072287D01*
X174202770Y-105056913D01*
X174347213Y-104951971D01*
X174347215Y-104951968D01*
X174347219Y-104951966D01*
X174491966Y-104807219D01*
X174491968Y-104807215D01*
X174491971Y-104807213D01*
X174544732Y-104734590D01*
X174612287Y-104641610D01*
X174705220Y-104459219D01*
X174768477Y-104264534D01*
X174800500Y-104062352D01*
X174800500Y-103857648D01*
X174768477Y-103655466D01*
X174705220Y-103460781D01*
X174705218Y-103460778D01*
X174705218Y-103460776D01*
X174671503Y-103394607D01*
X174612287Y-103278390D01*
X174604556Y-103267749D01*
X174491971Y-103112786D01*
X174347219Y-102968034D01*
X174310930Y-102941669D01*
X174268264Y-102886339D01*
X174262285Y-102816726D01*
X174294890Y-102754931D01*
X174355728Y-102720573D01*
X174370562Y-102718060D01*
X174407483Y-102714091D01*
X174542328Y-102663797D01*
X174542327Y-102663797D01*
X174542331Y-102663796D01*
X174657546Y-102577546D01*
X174743796Y-102462331D01*
X174794091Y-102327483D01*
X174800500Y-102267873D01*
X174800499Y-101317648D01*
X187439500Y-101317648D01*
X187439500Y-101522351D01*
X187471522Y-101724534D01*
X187534781Y-101919223D01*
X187627715Y-102101613D01*
X187748028Y-102267213D01*
X187892786Y-102411971D01*
X188047749Y-102524556D01*
X188058390Y-102532287D01*
X188147212Y-102577544D01*
X188151080Y-102579515D01*
X188201876Y-102627490D01*
X188218671Y-102695311D01*
X188196134Y-102761446D01*
X188151080Y-102800485D01*
X188058386Y-102847715D01*
X187892786Y-102968028D01*
X187748028Y-103112786D01*
X187627715Y-103278386D01*
X187534781Y-103460776D01*
X187471522Y-103655465D01*
X187439500Y-103857648D01*
X187439500Y-104062351D01*
X187471522Y-104264534D01*
X187534781Y-104459223D01*
X187627715Y-104641613D01*
X187748028Y-104807213D01*
X187892786Y-104951971D01*
X188047749Y-105064556D01*
X188058390Y-105072287D01*
X188149840Y-105118883D01*
X188151080Y-105119515D01*
X188201876Y-105167490D01*
X188218671Y-105235311D01*
X188196134Y-105301446D01*
X188151080Y-105340485D01*
X188058386Y-105387715D01*
X187892786Y-105508028D01*
X187748028Y-105652786D01*
X187627715Y-105818386D01*
X187534781Y-106000776D01*
X187471522Y-106195465D01*
X187439500Y-106397648D01*
X187439500Y-106602351D01*
X187471522Y-106804534D01*
X187534781Y-106999223D01*
X187627715Y-107181613D01*
X187748028Y-107347213D01*
X187892786Y-107491971D01*
X188047749Y-107604556D01*
X188058390Y-107612287D01*
X188149840Y-107658883D01*
X188151080Y-107659515D01*
X188201876Y-107707490D01*
X188218671Y-107775311D01*
X188196134Y-107841446D01*
X188151080Y-107880485D01*
X188058386Y-107927715D01*
X187892786Y-108048028D01*
X187748028Y-108192786D01*
X187627715Y-108358386D01*
X187534781Y-108540776D01*
X187471522Y-108735465D01*
X187439500Y-108937648D01*
X187439500Y-109142351D01*
X187471522Y-109344534D01*
X187534781Y-109539223D01*
X187627715Y-109721613D01*
X187748028Y-109887213D01*
X187892786Y-110031971D01*
X188047749Y-110144556D01*
X188058390Y-110152287D01*
X188149840Y-110198883D01*
X188151080Y-110199515D01*
X188201876Y-110247490D01*
X188218671Y-110315311D01*
X188196134Y-110381446D01*
X188151080Y-110420485D01*
X188058386Y-110467715D01*
X187892786Y-110588028D01*
X187748028Y-110732786D01*
X187627715Y-110898386D01*
X187534781Y-111080776D01*
X187471522Y-111275465D01*
X187439500Y-111477648D01*
X187439500Y-111682351D01*
X187471522Y-111884534D01*
X187534781Y-112079223D01*
X187627715Y-112261613D01*
X187748028Y-112427213D01*
X187892786Y-112571971D01*
X188047749Y-112684556D01*
X188058390Y-112692287D01*
X188149840Y-112738883D01*
X188151080Y-112739515D01*
X188201876Y-112787490D01*
X188218671Y-112855311D01*
X188196134Y-112921446D01*
X188151080Y-112960485D01*
X188058386Y-113007715D01*
X187892786Y-113128028D01*
X187748028Y-113272786D01*
X187627715Y-113438386D01*
X187534781Y-113620776D01*
X187471522Y-113815465D01*
X187439500Y-114017648D01*
X187439500Y-114222351D01*
X187471522Y-114424534D01*
X187534781Y-114619223D01*
X187627715Y-114801613D01*
X187748028Y-114967213D01*
X187892786Y-115111971D01*
X188047749Y-115224556D01*
X188058390Y-115232287D01*
X188149840Y-115278883D01*
X188151080Y-115279515D01*
X188201876Y-115327490D01*
X188218671Y-115395311D01*
X188196134Y-115461446D01*
X188151080Y-115500485D01*
X188058386Y-115547715D01*
X187892786Y-115668028D01*
X187748028Y-115812786D01*
X187627715Y-115978386D01*
X187534781Y-116160776D01*
X187471522Y-116355465D01*
X187439500Y-116557648D01*
X187439500Y-116762351D01*
X187471522Y-116964534D01*
X187534781Y-117159223D01*
X187627715Y-117341613D01*
X187748028Y-117507213D01*
X187892786Y-117651971D01*
X188047749Y-117764556D01*
X188058390Y-117772287D01*
X188149840Y-117818883D01*
X188151080Y-117819515D01*
X188201876Y-117867490D01*
X188218671Y-117935311D01*
X188196134Y-118001446D01*
X188151080Y-118040485D01*
X188058386Y-118087715D01*
X187892786Y-118208028D01*
X187748028Y-118352786D01*
X187627715Y-118518386D01*
X187534781Y-118700776D01*
X187471522Y-118895465D01*
X187439500Y-119097648D01*
X187439500Y-119302351D01*
X187471522Y-119504534D01*
X187534781Y-119699223D01*
X187627715Y-119881613D01*
X187748028Y-120047213D01*
X187892786Y-120191971D01*
X188047749Y-120304556D01*
X188058390Y-120312287D01*
X188149840Y-120358883D01*
X188151080Y-120359515D01*
X188201876Y-120407490D01*
X188218671Y-120475311D01*
X188196134Y-120541446D01*
X188151080Y-120580485D01*
X188058386Y-120627715D01*
X187892786Y-120748028D01*
X187748028Y-120892786D01*
X187627715Y-121058386D01*
X187534781Y-121240776D01*
X187471522Y-121435465D01*
X187439500Y-121637648D01*
X187439500Y-121842351D01*
X187471522Y-122044534D01*
X187534781Y-122239223D01*
X187627715Y-122421613D01*
X187748028Y-122587213D01*
X187892786Y-122731971D01*
X188047749Y-122844556D01*
X188058390Y-122852287D01*
X188149840Y-122898883D01*
X188151080Y-122899515D01*
X188201876Y-122947490D01*
X188218671Y-123015311D01*
X188196134Y-123081446D01*
X188151080Y-123120485D01*
X188058386Y-123167715D01*
X187892786Y-123288028D01*
X187748028Y-123432786D01*
X187627715Y-123598386D01*
X187534781Y-123780776D01*
X187471522Y-123975465D01*
X187439500Y-124177648D01*
X187439500Y-124382351D01*
X187471522Y-124584534D01*
X187534781Y-124779223D01*
X187627715Y-124961613D01*
X187748028Y-125127213D01*
X187892786Y-125271971D01*
X188047749Y-125384556D01*
X188058390Y-125392287D01*
X188149840Y-125438883D01*
X188151080Y-125439515D01*
X188201876Y-125487490D01*
X188218671Y-125555311D01*
X188196134Y-125621446D01*
X188151080Y-125660485D01*
X188058386Y-125707715D01*
X187892786Y-125828028D01*
X187748028Y-125972786D01*
X187627715Y-126138386D01*
X187534781Y-126320776D01*
X187471522Y-126515465D01*
X187439500Y-126717648D01*
X187439500Y-126922351D01*
X187471522Y-127124534D01*
X187534781Y-127319223D01*
X187627715Y-127501613D01*
X187748028Y-127667213D01*
X187892786Y-127811971D01*
X188047749Y-127924556D01*
X188058390Y-127932287D01*
X188149840Y-127978883D01*
X188151080Y-127979515D01*
X188201876Y-128027490D01*
X188218671Y-128095311D01*
X188196134Y-128161446D01*
X188151080Y-128200485D01*
X188058386Y-128247715D01*
X187892786Y-128368028D01*
X187748028Y-128512786D01*
X187627715Y-128678386D01*
X187534781Y-128860776D01*
X187471522Y-129055465D01*
X187439500Y-129257648D01*
X187439500Y-129462351D01*
X187471522Y-129664534D01*
X187534781Y-129859223D01*
X187596415Y-129980185D01*
X187623320Y-130032989D01*
X187627715Y-130041613D01*
X187748028Y-130207213D01*
X187892786Y-130351971D01*
X188047749Y-130464556D01*
X188058390Y-130472287D01*
X188149840Y-130518883D01*
X188151080Y-130519515D01*
X188201876Y-130567490D01*
X188218671Y-130635311D01*
X188196134Y-130701446D01*
X188151080Y-130740485D01*
X188058386Y-130787715D01*
X187892786Y-130908028D01*
X187748028Y-131052786D01*
X187627715Y-131218386D01*
X187534781Y-131400776D01*
X187471522Y-131595465D01*
X187439500Y-131797648D01*
X187439500Y-132002351D01*
X187471522Y-132204534D01*
X187534781Y-132399223D01*
X187627715Y-132581613D01*
X187748028Y-132747213D01*
X187892786Y-132891971D01*
X188047749Y-133004556D01*
X188058390Y-133012287D01*
X188127464Y-133047482D01*
X188151080Y-133059515D01*
X188201876Y-133107490D01*
X188218671Y-133175311D01*
X188196134Y-133241446D01*
X188151080Y-133280485D01*
X188058386Y-133327715D01*
X187892786Y-133448028D01*
X187748028Y-133592786D01*
X187627715Y-133758386D01*
X187534781Y-133940776D01*
X187471522Y-134135465D01*
X187439500Y-134337648D01*
X187439500Y-134542351D01*
X187471522Y-134744534D01*
X187534781Y-134939223D01*
X187627715Y-135121613D01*
X187748028Y-135287213D01*
X187892786Y-135431971D01*
X188047749Y-135544556D01*
X188058390Y-135552287D01*
X188149840Y-135598883D01*
X188151080Y-135599515D01*
X188201876Y-135647490D01*
X188218671Y-135715311D01*
X188196134Y-135781446D01*
X188151080Y-135820485D01*
X188058386Y-135867715D01*
X187892786Y-135988028D01*
X187748028Y-136132786D01*
X187627715Y-136298386D01*
X187534781Y-136480776D01*
X187471522Y-136675465D01*
X187439500Y-136877648D01*
X187439500Y-137082351D01*
X187471522Y-137284534D01*
X187534781Y-137479223D01*
X187627715Y-137661613D01*
X187748028Y-137827213D01*
X187892786Y-137971971D01*
X188047749Y-138084556D01*
X188058390Y-138092287D01*
X188174607Y-138151503D01*
X188240776Y-138185218D01*
X188240778Y-138185218D01*
X188240781Y-138185220D01*
X188345137Y-138219127D01*
X188435465Y-138248477D01*
X188536557Y-138264488D01*
X188637648Y-138280500D01*
X188637649Y-138280500D01*
X188842351Y-138280500D01*
X188842352Y-138280500D01*
X189044534Y-138248477D01*
X189239219Y-138185220D01*
X189421610Y-138092287D01*
X189514590Y-138024732D01*
X189587213Y-137971971D01*
X189587215Y-137971968D01*
X189587219Y-137971966D01*
X189731966Y-137827219D01*
X189731968Y-137827215D01*
X189731971Y-137827213D01*
X189784732Y-137754590D01*
X189852287Y-137661610D01*
X189945220Y-137479219D01*
X190008477Y-137284534D01*
X190040500Y-137082352D01*
X190040500Y-136877648D01*
X190008477Y-136675466D01*
X189945220Y-136480781D01*
X189945218Y-136480778D01*
X189945218Y-136480776D01*
X189911503Y-136414607D01*
X189852287Y-136298390D01*
X189844556Y-136287749D01*
X189731971Y-136132786D01*
X189587213Y-135988028D01*
X189421614Y-135867715D01*
X189415006Y-135864348D01*
X189328917Y-135820483D01*
X189278123Y-135772511D01*
X189261328Y-135704690D01*
X189283865Y-135638555D01*
X189328917Y-135599516D01*
X189421610Y-135552287D01*
X189442770Y-135536913D01*
X189587213Y-135431971D01*
X189587215Y-135431968D01*
X189587219Y-135431966D01*
X189731966Y-135287219D01*
X189731968Y-135287215D01*
X189731971Y-135287213D01*
X189784732Y-135214590D01*
X189852287Y-135121610D01*
X189945220Y-134939219D01*
X190008477Y-134744534D01*
X190040500Y-134542352D01*
X190040500Y-134337648D01*
X190008477Y-134135466D01*
X189945220Y-133940781D01*
X189945218Y-133940778D01*
X189945218Y-133940776D01*
X189911503Y-133874607D01*
X189852287Y-133758390D01*
X189844556Y-133747749D01*
X189731971Y-133592786D01*
X189587213Y-133448028D01*
X189421614Y-133327715D01*
X189415006Y-133324348D01*
X189328917Y-133280483D01*
X189278123Y-133232511D01*
X189261328Y-133164690D01*
X189283865Y-133098555D01*
X189328917Y-133059516D01*
X189421610Y-133012287D01*
X189442770Y-132996913D01*
X189587213Y-132891971D01*
X189587215Y-132891968D01*
X189587219Y-132891966D01*
X189731966Y-132747219D01*
X189731968Y-132747215D01*
X189731971Y-132747213D01*
X189784732Y-132674590D01*
X189852287Y-132581610D01*
X189945220Y-132399219D01*
X190008477Y-132204534D01*
X190040500Y-132002352D01*
X190040500Y-131797648D01*
X190009568Y-131602352D01*
X190008477Y-131595465D01*
X189963636Y-131457461D01*
X189945220Y-131400781D01*
X189945218Y-131400778D01*
X189945218Y-131400776D01*
X189908538Y-131328789D01*
X189852287Y-131218390D01*
X189816197Y-131168716D01*
X189731971Y-131052786D01*
X189587213Y-130908028D01*
X189421614Y-130787715D01*
X189404620Y-130779056D01*
X189328917Y-130740483D01*
X189278123Y-130692511D01*
X189261328Y-130624690D01*
X189283865Y-130558555D01*
X189328917Y-130519516D01*
X189421610Y-130472287D01*
X189442770Y-130456913D01*
X189587213Y-130351971D01*
X189587215Y-130351968D01*
X189587219Y-130351966D01*
X189731966Y-130207219D01*
X189731968Y-130207215D01*
X189731971Y-130207213D01*
X189784732Y-130134590D01*
X189852287Y-130041610D01*
X189945220Y-129859219D01*
X190008477Y-129664534D01*
X190040500Y-129462352D01*
X190040500Y-129257648D01*
X190035122Y-129223694D01*
X190008477Y-129055465D01*
X189945218Y-128860776D01*
X189897045Y-128766233D01*
X189852287Y-128678390D01*
X189844556Y-128667749D01*
X189731971Y-128512786D01*
X189587213Y-128368028D01*
X189421614Y-128247715D01*
X189415006Y-128244348D01*
X189328917Y-128200483D01*
X189278123Y-128152511D01*
X189261328Y-128084690D01*
X189283865Y-128018555D01*
X189328917Y-127979516D01*
X189421610Y-127932287D01*
X189547333Y-127840945D01*
X189587213Y-127811971D01*
X189587215Y-127811968D01*
X189587219Y-127811966D01*
X189731966Y-127667219D01*
X189731968Y-127667215D01*
X189731971Y-127667213D01*
X189816197Y-127551284D01*
X189852287Y-127501610D01*
X189945220Y-127319219D01*
X190008477Y-127124534D01*
X190040500Y-126922352D01*
X190040500Y-126717648D01*
X190008477Y-126515466D01*
X189945220Y-126320781D01*
X189945218Y-126320778D01*
X189945218Y-126320776D01*
X189911503Y-126254607D01*
X189852287Y-126138390D01*
X189844556Y-126127749D01*
X189731971Y-125972786D01*
X189587213Y-125828028D01*
X189421614Y-125707715D01*
X189415006Y-125704348D01*
X189328917Y-125660483D01*
X189278123Y-125612511D01*
X189261328Y-125544690D01*
X189283865Y-125478555D01*
X189328917Y-125439516D01*
X189421610Y-125392287D01*
X189442770Y-125376913D01*
X189587213Y-125271971D01*
X189587215Y-125271968D01*
X189587219Y-125271966D01*
X189731966Y-125127219D01*
X189731968Y-125127215D01*
X189731971Y-125127213D01*
X189784732Y-125054590D01*
X189852287Y-124961610D01*
X189945220Y-124779219D01*
X190008477Y-124584534D01*
X190040500Y-124382352D01*
X190040500Y-124177648D01*
X190008477Y-123975466D01*
X189945220Y-123780781D01*
X189945218Y-123780778D01*
X189945218Y-123780776D01*
X189911503Y-123714607D01*
X189852287Y-123598390D01*
X189844556Y-123587749D01*
X189731971Y-123432786D01*
X189587213Y-123288028D01*
X189421614Y-123167715D01*
X189415006Y-123164348D01*
X189328917Y-123120483D01*
X189278123Y-123072511D01*
X189261328Y-123004690D01*
X189283865Y-122938555D01*
X189328917Y-122899516D01*
X189421610Y-122852287D01*
X189442770Y-122836913D01*
X189587213Y-122731971D01*
X189587215Y-122731968D01*
X189587219Y-122731966D01*
X189731966Y-122587219D01*
X189731968Y-122587215D01*
X189731971Y-122587213D01*
X189784732Y-122514590D01*
X189852287Y-122421610D01*
X189945220Y-122239219D01*
X190008477Y-122044534D01*
X190040500Y-121842352D01*
X190040500Y-121637648D01*
X190008477Y-121435466D01*
X189945220Y-121240781D01*
X189945218Y-121240778D01*
X189945218Y-121240776D01*
X189911503Y-121174607D01*
X189852287Y-121058390D01*
X189844556Y-121047749D01*
X189731971Y-120892786D01*
X189587213Y-120748028D01*
X189421614Y-120627715D01*
X189415006Y-120624348D01*
X189328917Y-120580483D01*
X189278123Y-120532511D01*
X189261328Y-120464690D01*
X189283865Y-120398555D01*
X189328917Y-120359516D01*
X189421610Y-120312287D01*
X189442770Y-120296913D01*
X189587213Y-120191971D01*
X189587215Y-120191968D01*
X189587219Y-120191966D01*
X189731966Y-120047219D01*
X189731968Y-120047215D01*
X189731971Y-120047213D01*
X189784732Y-119974590D01*
X189852287Y-119881610D01*
X189945220Y-119699219D01*
X190008477Y-119504534D01*
X190040500Y-119302352D01*
X190040500Y-119097648D01*
X190008477Y-118895466D01*
X189945220Y-118700781D01*
X189945218Y-118700778D01*
X189945218Y-118700776D01*
X189911503Y-118634607D01*
X189852287Y-118518390D01*
X189844556Y-118507749D01*
X189731971Y-118352786D01*
X189587213Y-118208028D01*
X189421614Y-118087715D01*
X189415006Y-118084348D01*
X189328917Y-118040483D01*
X189278123Y-117992511D01*
X189261328Y-117924690D01*
X189283865Y-117858555D01*
X189328917Y-117819516D01*
X189421610Y-117772287D01*
X189442770Y-117756913D01*
X189587213Y-117651971D01*
X189587215Y-117651968D01*
X189587219Y-117651966D01*
X189731966Y-117507219D01*
X189731968Y-117507215D01*
X189731971Y-117507213D01*
X189784732Y-117434590D01*
X189852287Y-117341610D01*
X189945220Y-117159219D01*
X190008477Y-116964534D01*
X190040500Y-116762352D01*
X190040500Y-116557648D01*
X190008477Y-116355466D01*
X189945220Y-116160781D01*
X189945218Y-116160778D01*
X189945218Y-116160776D01*
X189885762Y-116044089D01*
X189852287Y-115978390D01*
X189844556Y-115967749D01*
X189731971Y-115812786D01*
X189587213Y-115668028D01*
X189421614Y-115547715D01*
X189415006Y-115544348D01*
X189328917Y-115500483D01*
X189278123Y-115452511D01*
X189261328Y-115384690D01*
X189283865Y-115318555D01*
X189328917Y-115279516D01*
X189421610Y-115232287D01*
X189442770Y-115216913D01*
X189587213Y-115111971D01*
X189587215Y-115111968D01*
X189587219Y-115111966D01*
X189731966Y-114967219D01*
X189731968Y-114967215D01*
X189731971Y-114967213D01*
X189812039Y-114857007D01*
X189852287Y-114801610D01*
X189945220Y-114619219D01*
X190008477Y-114424534D01*
X190040500Y-114222352D01*
X190040500Y-114017648D01*
X190008477Y-113815466D01*
X189991699Y-113763830D01*
X189964752Y-113680894D01*
X189945220Y-113620781D01*
X189945218Y-113620778D01*
X189945218Y-113620776D01*
X189911503Y-113554607D01*
X189852287Y-113438390D01*
X189844556Y-113427749D01*
X189731971Y-113272786D01*
X189587213Y-113128028D01*
X189421614Y-113007715D01*
X189415006Y-113004348D01*
X189328917Y-112960483D01*
X189278123Y-112912511D01*
X189261328Y-112844690D01*
X189283865Y-112778555D01*
X189328917Y-112739516D01*
X189421610Y-112692287D01*
X189442770Y-112676913D01*
X189587213Y-112571971D01*
X189587215Y-112571968D01*
X189587219Y-112571966D01*
X189731966Y-112427219D01*
X189731968Y-112427215D01*
X189731971Y-112427213D01*
X189784732Y-112354590D01*
X189852287Y-112261610D01*
X189945220Y-112079219D01*
X190008477Y-111884534D01*
X190040500Y-111682352D01*
X190040500Y-111477648D01*
X190008477Y-111275466D01*
X189945220Y-111080781D01*
X189945218Y-111080778D01*
X189945218Y-111080776D01*
X189911503Y-111014607D01*
X189852287Y-110898390D01*
X189821126Y-110855500D01*
X189731971Y-110732786D01*
X189587213Y-110588028D01*
X189421614Y-110467715D01*
X189415006Y-110464348D01*
X189328917Y-110420483D01*
X189278123Y-110372511D01*
X189261328Y-110304690D01*
X189283865Y-110238555D01*
X189328917Y-110199516D01*
X189421610Y-110152287D01*
X189442770Y-110136913D01*
X189587213Y-110031971D01*
X189587215Y-110031968D01*
X189587219Y-110031966D01*
X189731966Y-109887219D01*
X189731968Y-109887215D01*
X189731971Y-109887213D01*
X189784732Y-109814590D01*
X189852287Y-109721610D01*
X189945220Y-109539219D01*
X190008477Y-109344534D01*
X190040500Y-109142352D01*
X190040500Y-108937648D01*
X190008477Y-108735466D01*
X189945220Y-108540781D01*
X189945218Y-108540778D01*
X189945218Y-108540776D01*
X189911503Y-108474607D01*
X189852287Y-108358390D01*
X189844556Y-108347749D01*
X189731971Y-108192786D01*
X189587213Y-108048028D01*
X189421614Y-107927715D01*
X189415006Y-107924348D01*
X189328917Y-107880483D01*
X189278123Y-107832511D01*
X189261328Y-107764690D01*
X189283865Y-107698555D01*
X189328917Y-107659516D01*
X189421610Y-107612287D01*
X189442770Y-107596913D01*
X189587213Y-107491971D01*
X189587215Y-107491968D01*
X189587219Y-107491966D01*
X189731966Y-107347219D01*
X189731968Y-107347215D01*
X189731971Y-107347213D01*
X189784732Y-107274590D01*
X189852287Y-107181610D01*
X189945220Y-106999219D01*
X190008477Y-106804534D01*
X190040500Y-106602352D01*
X190040500Y-106397648D01*
X190008477Y-106195466D01*
X189945220Y-106000781D01*
X189945218Y-106000778D01*
X189945218Y-106000776D01*
X189911503Y-105934607D01*
X189852287Y-105818390D01*
X189844556Y-105807749D01*
X189731971Y-105652786D01*
X189587213Y-105508028D01*
X189421614Y-105387715D01*
X189415006Y-105384348D01*
X189328917Y-105340483D01*
X189278123Y-105292511D01*
X189261328Y-105224690D01*
X189283865Y-105158555D01*
X189328917Y-105119516D01*
X189421610Y-105072287D01*
X189442770Y-105056913D01*
X189587213Y-104951971D01*
X189587215Y-104951968D01*
X189587219Y-104951966D01*
X189731966Y-104807219D01*
X189731968Y-104807215D01*
X189731971Y-104807213D01*
X189784732Y-104734590D01*
X189852287Y-104641610D01*
X189945220Y-104459219D01*
X190008477Y-104264534D01*
X190040500Y-104062352D01*
X190040500Y-103857648D01*
X190008477Y-103655466D01*
X189945220Y-103460781D01*
X189945218Y-103460778D01*
X189945218Y-103460776D01*
X189911503Y-103394607D01*
X189852287Y-103278390D01*
X189844556Y-103267749D01*
X189731971Y-103112786D01*
X189587213Y-102968028D01*
X189421614Y-102847715D01*
X189415006Y-102844348D01*
X189328917Y-102800483D01*
X189278123Y-102752511D01*
X189261328Y-102684690D01*
X189283865Y-102618555D01*
X189328917Y-102579516D01*
X189421610Y-102532287D01*
X189442770Y-102516913D01*
X189587213Y-102411971D01*
X189587215Y-102411968D01*
X189587219Y-102411966D01*
X189731966Y-102267219D01*
X189731968Y-102267215D01*
X189731971Y-102267213D01*
X189784732Y-102194590D01*
X189852287Y-102101610D01*
X189945220Y-101919219D01*
X190008477Y-101724534D01*
X190040500Y-101522352D01*
X190040500Y-101317648D01*
X190008477Y-101115466D01*
X189945220Y-100920781D01*
X189945218Y-100920778D01*
X189945218Y-100920776D01*
X189858457Y-100750500D01*
X189852287Y-100738390D01*
X189804772Y-100672990D01*
X189731971Y-100572786D01*
X189587213Y-100428028D01*
X189421613Y-100307715D01*
X189421612Y-100307714D01*
X189421610Y-100307713D01*
X189364653Y-100278691D01*
X189239223Y-100214781D01*
X189044534Y-100151522D01*
X188869995Y-100123878D01*
X188842352Y-100119500D01*
X188637648Y-100119500D01*
X188613329Y-100123351D01*
X188435465Y-100151522D01*
X188240776Y-100214781D01*
X188058386Y-100307715D01*
X187892786Y-100428028D01*
X187748028Y-100572786D01*
X187627715Y-100738386D01*
X187534781Y-100920776D01*
X187471522Y-101115465D01*
X187439500Y-101317648D01*
X174800499Y-101317648D01*
X174800499Y-100572128D01*
X174794091Y-100512517D01*
X174782156Y-100480518D01*
X174743797Y-100377671D01*
X174743793Y-100377664D01*
X174657547Y-100262455D01*
X174657544Y-100262452D01*
X174542335Y-100176206D01*
X174542328Y-100176202D01*
X174407482Y-100125908D01*
X174407483Y-100125908D01*
X174347883Y-100119501D01*
X174347881Y-100119500D01*
X174347873Y-100119500D01*
X174347864Y-100119500D01*
X172652129Y-100119500D01*
X172652123Y-100119501D01*
X172592516Y-100125908D01*
X172457671Y-100176202D01*
X172457664Y-100176206D01*
X172342455Y-100262452D01*
X172342452Y-100262455D01*
X172256206Y-100377664D01*
X172256202Y-100377671D01*
X172205908Y-100512517D01*
X172200849Y-100559576D01*
X172199501Y-100572123D01*
X172199500Y-100572135D01*
X172199500Y-102267870D01*
X172199501Y-102267876D01*
X172205908Y-102327483D01*
X172256202Y-102462328D01*
X172256206Y-102462335D01*
X172342452Y-102577544D01*
X172342455Y-102577547D01*
X172457664Y-102663793D01*
X172457671Y-102663797D01*
X172502618Y-102680561D01*
X172592517Y-102714091D01*
X172629441Y-102718060D01*
X172693989Y-102744796D01*
X172733838Y-102802188D01*
X172736333Y-102872013D01*
X172700681Y-102932102D01*
X172689071Y-102941666D01*
X172652784Y-102968030D01*
X172508028Y-103112786D01*
X172387715Y-103278386D01*
X172294781Y-103460776D01*
X172231522Y-103655465D01*
X172199500Y-103857648D01*
X172199500Y-104062351D01*
X172231522Y-104264534D01*
X172294781Y-104459223D01*
X172387715Y-104641613D01*
X172508028Y-104807213D01*
X172652786Y-104951971D01*
X172807749Y-105064556D01*
X172818390Y-105072287D01*
X172909840Y-105118883D01*
X172911080Y-105119515D01*
X172961876Y-105167490D01*
X172978671Y-105235311D01*
X172956134Y-105301446D01*
X172911080Y-105340485D01*
X172818386Y-105387715D01*
X172652786Y-105508028D01*
X172508028Y-105652786D01*
X172387715Y-105818386D01*
X172294781Y-106000776D01*
X172231522Y-106195465D01*
X172199500Y-106397648D01*
X172199500Y-106602351D01*
X172231522Y-106804534D01*
X172294781Y-106999223D01*
X172387715Y-107181613D01*
X172508028Y-107347213D01*
X172652786Y-107491971D01*
X172807749Y-107604556D01*
X172818390Y-107612287D01*
X172909840Y-107658883D01*
X172911080Y-107659515D01*
X172961876Y-107707490D01*
X172978671Y-107775311D01*
X172956134Y-107841446D01*
X172911080Y-107880485D01*
X172818386Y-107927715D01*
X172652786Y-108048028D01*
X172508028Y-108192786D01*
X172387715Y-108358386D01*
X172294781Y-108540776D01*
X172231522Y-108735465D01*
X172199500Y-108937648D01*
X172199500Y-109142351D01*
X172231522Y-109344534D01*
X172294781Y-109539223D01*
X172387715Y-109721613D01*
X172508028Y-109887213D01*
X172652786Y-110031971D01*
X172807749Y-110144556D01*
X172818390Y-110152287D01*
X172909840Y-110198883D01*
X172911080Y-110199515D01*
X172961876Y-110247490D01*
X172978671Y-110315311D01*
X172956134Y-110381446D01*
X172911080Y-110420485D01*
X172818386Y-110467715D01*
X172652786Y-110588028D01*
X172508028Y-110732786D01*
X172387715Y-110898385D01*
X172380883Y-110911795D01*
X172332909Y-110962591D01*
X172270398Y-110979500D01*
X161974500Y-110979500D01*
X161907461Y-110959815D01*
X161861706Y-110907011D01*
X161850500Y-110855500D01*
X161850500Y-100704067D01*
X161870185Y-100637028D01*
X161918205Y-100593582D01*
X162036433Y-100533343D01*
X162227510Y-100394517D01*
X162394517Y-100227510D01*
X162533343Y-100036433D01*
X162640568Y-99825992D01*
X162713553Y-99601368D01*
X162750500Y-99368097D01*
X162750500Y-99131902D01*
X162713553Y-98898631D01*
X162640566Y-98674003D01*
X162533342Y-98463566D01*
X162394517Y-98272490D01*
X162227510Y-98105483D01*
X162036433Y-97966657D01*
X161825996Y-97859433D01*
X161601368Y-97786446D01*
X161368097Y-97749500D01*
X161368092Y-97749500D01*
X161131908Y-97749500D01*
X161131903Y-97749500D01*
X160898631Y-97786446D01*
X160674003Y-97859433D01*
X160463566Y-97966657D01*
X160354550Y-98045862D01*
X160272490Y-98105483D01*
X160272488Y-98105485D01*
X160272487Y-98105485D01*
X160105485Y-98272487D01*
X160105485Y-98272488D01*
X160105483Y-98272490D01*
X160045862Y-98354550D01*
X159966657Y-98463566D01*
X159906417Y-98581795D01*
X159858442Y-98632591D01*
X159795932Y-98649500D01*
X156204068Y-98649500D01*
X156137029Y-98629815D01*
X156093583Y-98581795D01*
X156033342Y-98463566D01*
X155894517Y-98272490D01*
X155727510Y-98105483D01*
X155536433Y-97966657D01*
X155325996Y-97859433D01*
X155101368Y-97786446D01*
X154868097Y-97749500D01*
X154868092Y-97749500D01*
X154631908Y-97749500D01*
X154631903Y-97749500D01*
X154398631Y-97786446D01*
X154174003Y-97859433D01*
X153963566Y-97966657D01*
X153854550Y-98045862D01*
X153772490Y-98105483D01*
X153772488Y-98105485D01*
X153772487Y-98105485D01*
X153605485Y-98272487D01*
X153605485Y-98272488D01*
X153605483Y-98272490D01*
X153545862Y-98354550D01*
X153466657Y-98463566D01*
X153359433Y-98674003D01*
X153286446Y-98898631D01*
X153249500Y-99131902D01*
X153249500Y-99368097D01*
X153286446Y-99601368D01*
X153359433Y-99825996D01*
X153466657Y-100036433D01*
X153605483Y-100227510D01*
X153772490Y-100394517D01*
X153963567Y-100533343D01*
X154040978Y-100572786D01*
X154174003Y-100640566D01*
X154174005Y-100640566D01*
X154174008Y-100640568D01*
X154294412Y-100679689D01*
X154398631Y-100713553D01*
X154631903Y-100750500D01*
X154631908Y-100750500D01*
X154868097Y-100750500D01*
X155101368Y-100713553D01*
X155130563Y-100704067D01*
X155325992Y-100640568D01*
X155536433Y-100533343D01*
X155727510Y-100394517D01*
X155894517Y-100227510D01*
X156033343Y-100036433D01*
X156093583Y-99918204D01*
X156141558Y-99867409D01*
X156204068Y-99850500D01*
X159775499Y-99850500D01*
X159842538Y-99870185D01*
X159888293Y-99922989D01*
X159899499Y-99974500D01*
X159899499Y-100079054D01*
X159899498Y-100079054D01*
X159925529Y-100176202D01*
X159940423Y-100231785D01*
X160019481Y-100368716D01*
X160131284Y-100480519D01*
X160268215Y-100559577D01*
X160420943Y-100600501D01*
X160420946Y-100600501D01*
X160525500Y-100600501D01*
X160592539Y-100620186D01*
X160638294Y-100672990D01*
X160649500Y-100724501D01*
X160649500Y-110949903D01*
X160629815Y-111016942D01*
X160613181Y-111037584D01*
X160519483Y-111131281D01*
X160519481Y-111131284D01*
X160440423Y-111268214D01*
X160440423Y-111268215D01*
X160399499Y-111420943D01*
X160399499Y-111420945D01*
X160399499Y-111579054D01*
X160399498Y-111579054D01*
X160399499Y-111579057D01*
X160440423Y-111731785D01*
X160519481Y-111868716D01*
X160519483Y-111868718D01*
X160595139Y-111944374D01*
X160595149Y-111944385D01*
X160599479Y-111948715D01*
X160599480Y-111948716D01*
X160711284Y-112060520D01*
X160780534Y-112100501D01*
X160848215Y-112139577D01*
X161000943Y-112180500D01*
X161159057Y-112180500D01*
X172270398Y-112180500D01*
X172337437Y-112200185D01*
X172380883Y-112248205D01*
X172387715Y-112261614D01*
X172508028Y-112427213D01*
X172652786Y-112571971D01*
X172807749Y-112684556D01*
X172818390Y-112692287D01*
X172909840Y-112738883D01*
X172911080Y-112739515D01*
X172961876Y-112787490D01*
X172978671Y-112855311D01*
X172956134Y-112921446D01*
X172911080Y-112960485D01*
X172818386Y-113007715D01*
X172652786Y-113128028D01*
X172508028Y-113272786D01*
X172387715Y-113438386D01*
X172294781Y-113620776D01*
X172231522Y-113815465D01*
X172199500Y-114017648D01*
X172199500Y-114222351D01*
X172231522Y-114424534D01*
X172294781Y-114619223D01*
X172387715Y-114801613D01*
X172508028Y-114967213D01*
X172652786Y-115111971D01*
X172807749Y-115224556D01*
X172818390Y-115232287D01*
X172909840Y-115278883D01*
X172911080Y-115279515D01*
X172961876Y-115327490D01*
X172978671Y-115395311D01*
X172956134Y-115461446D01*
X172911080Y-115500485D01*
X172818386Y-115547715D01*
X172652786Y-115668028D01*
X172508028Y-115812786D01*
X172387715Y-115978386D01*
X172294781Y-116160776D01*
X172231522Y-116355465D01*
X172199500Y-116557648D01*
X172199500Y-116762351D01*
X172231522Y-116964534D01*
X172294781Y-117159223D01*
X172387715Y-117341613D01*
X172508028Y-117507213D01*
X172652786Y-117651971D01*
X172807749Y-117764556D01*
X172818390Y-117772287D01*
X172909840Y-117818883D01*
X172911080Y-117819515D01*
X172961876Y-117867490D01*
X172978671Y-117935311D01*
X172956134Y-118001446D01*
X172911080Y-118040485D01*
X172818386Y-118087715D01*
X172652786Y-118208028D01*
X172508028Y-118352786D01*
X172387715Y-118518386D01*
X172294781Y-118700776D01*
X172231522Y-118895465D01*
X172199500Y-119097648D01*
X172199500Y-119302351D01*
X172231522Y-119504534D01*
X172294781Y-119699223D01*
X172387715Y-119881613D01*
X172508028Y-120047213D01*
X172652786Y-120191971D01*
X172807749Y-120304556D01*
X172818390Y-120312287D01*
X172909840Y-120358883D01*
X172911080Y-120359515D01*
X172961876Y-120407490D01*
X172978671Y-120475311D01*
X172956134Y-120541446D01*
X172911080Y-120580485D01*
X172818386Y-120627715D01*
X172652786Y-120748028D01*
X172508028Y-120892786D01*
X172387715Y-121058386D01*
X172294781Y-121240776D01*
X172231522Y-121435465D01*
X172199500Y-121637648D01*
X172199500Y-121842351D01*
X172231522Y-122044534D01*
X172294781Y-122239223D01*
X172387715Y-122421613D01*
X172508028Y-122587213D01*
X172652786Y-122731971D01*
X172807749Y-122844556D01*
X172818390Y-122852287D01*
X172909840Y-122898883D01*
X172911080Y-122899515D01*
X172961876Y-122947490D01*
X172978671Y-123015311D01*
X172956134Y-123081446D01*
X172911080Y-123120485D01*
X172818386Y-123167715D01*
X172652786Y-123288028D01*
X172508028Y-123432786D01*
X172387715Y-123598386D01*
X172294781Y-123780776D01*
X172231522Y-123975465D01*
X172199500Y-124177648D01*
X172199500Y-124382351D01*
X172231522Y-124584534D01*
X172294781Y-124779223D01*
X172387715Y-124961613D01*
X172508028Y-125127213D01*
X172652786Y-125271971D01*
X172807749Y-125384556D01*
X172818390Y-125392287D01*
X172909840Y-125438883D01*
X172911080Y-125439515D01*
X172961876Y-125487490D01*
X172978671Y-125555311D01*
X172956134Y-125621446D01*
X172911080Y-125660485D01*
X172818386Y-125707715D01*
X172652786Y-125828028D01*
X172508028Y-125972786D01*
X172387715Y-126138386D01*
X172294781Y-126320776D01*
X172231522Y-126515465D01*
X172199500Y-126717648D01*
X172199500Y-126922351D01*
X172231522Y-127124534D01*
X172294781Y-127319223D01*
X172387715Y-127501613D01*
X172508028Y-127667213D01*
X172652786Y-127811971D01*
X172807749Y-127924556D01*
X172818390Y-127932287D01*
X172909840Y-127978883D01*
X172911080Y-127979515D01*
X172961876Y-128027490D01*
X172978671Y-128095311D01*
X172956134Y-128161446D01*
X172911080Y-128200485D01*
X172818386Y-128247715D01*
X172652786Y-128368028D01*
X172508028Y-128512786D01*
X172387715Y-128678385D01*
X172380883Y-128691795D01*
X172332909Y-128742591D01*
X172270398Y-128759500D01*
X160160098Y-128759500D01*
X160093059Y-128739815D01*
X160072417Y-128723181D01*
X157786819Y-126437583D01*
X157753334Y-126376260D01*
X157750500Y-126349902D01*
X157750500Y-116174499D01*
X157770185Y-116107460D01*
X157822989Y-116061705D01*
X157874500Y-116050499D01*
X158197871Y-116050499D01*
X158197872Y-116050499D01*
X158257483Y-116044091D01*
X158392331Y-115993796D01*
X158507546Y-115907546D01*
X158593796Y-115792331D01*
X158644091Y-115657483D01*
X158650500Y-115597873D01*
X158650499Y-113502128D01*
X158644091Y-113442517D01*
X158642550Y-113438386D01*
X158593797Y-113307671D01*
X158593793Y-113307664D01*
X158507547Y-113192455D01*
X158507544Y-113192452D01*
X158392335Y-113106206D01*
X158392328Y-113106202D01*
X158257482Y-113055908D01*
X158257483Y-113055908D01*
X158197883Y-113049501D01*
X158197881Y-113049500D01*
X158197873Y-113049500D01*
X158197864Y-113049500D01*
X156102129Y-113049500D01*
X156102123Y-113049501D01*
X156042516Y-113055908D01*
X155907671Y-113106202D01*
X155907664Y-113106206D01*
X155792455Y-113192452D01*
X155792452Y-113192455D01*
X155706206Y-113307664D01*
X155706202Y-113307671D01*
X155655908Y-113442517D01*
X155649501Y-113502116D01*
X155649501Y-113502123D01*
X155649500Y-113502135D01*
X155649500Y-115597870D01*
X155649501Y-115597876D01*
X155655908Y-115657483D01*
X155706202Y-115792328D01*
X155706206Y-115792335D01*
X155792452Y-115907544D01*
X155792455Y-115907547D01*
X155907664Y-115993793D01*
X155907671Y-115993797D01*
X155952618Y-116010561D01*
X156042517Y-116044091D01*
X156102127Y-116050500D01*
X156425500Y-116050499D01*
X156492539Y-116070183D01*
X156538294Y-116122987D01*
X156549500Y-116174499D01*
X156549500Y-126563330D01*
X156549499Y-126563348D01*
X156549499Y-126729054D01*
X156549498Y-126729054D01*
X156590424Y-126881787D01*
X156600394Y-126899055D01*
X156600395Y-126899057D01*
X156669477Y-127018712D01*
X156669481Y-127018717D01*
X156788349Y-127137585D01*
X156788354Y-127137589D01*
X159491284Y-129840520D01*
X159491286Y-129840521D01*
X159491290Y-129840524D01*
X159627793Y-129919333D01*
X159628216Y-129919577D01*
X159780943Y-129960501D01*
X159780945Y-129960501D01*
X159946654Y-129960501D01*
X159946670Y-129960500D01*
X160021069Y-129960500D01*
X160088108Y-129980185D01*
X160133863Y-130032989D01*
X160143807Y-130102147D01*
X160114782Y-130165703D01*
X160056004Y-130203477D01*
X160040469Y-130206972D01*
X160023429Y-130209671D01*
X159885465Y-130231522D01*
X159690776Y-130294781D01*
X159508386Y-130387715D01*
X159342786Y-130508028D01*
X159198028Y-130652786D01*
X159077715Y-130818385D01*
X159070883Y-130831795D01*
X159022909Y-130882591D01*
X158960398Y-130899500D01*
X152907236Y-130899500D01*
X152840197Y-130879815D01*
X152807969Y-130849811D01*
X152757546Y-130782454D01*
X152701483Y-130740485D01*
X152642335Y-130696206D01*
X152642328Y-130696202D01*
X152507482Y-130645908D01*
X152507483Y-130645908D01*
X152447883Y-130639501D01*
X152447881Y-130639500D01*
X152447873Y-130639500D01*
X152447865Y-130639500D01*
X152337308Y-130639500D01*
X152270269Y-130619815D01*
X152249627Y-130603181D01*
X151588585Y-129942137D01*
X151673694Y-129919333D01*
X151776306Y-129860090D01*
X151860090Y-129776306D01*
X151919333Y-129673694D01*
X151942137Y-129588585D01*
X152651066Y-130297514D01*
X152651066Y-130297513D01*
X152697386Y-130233760D01*
X152797432Y-130037410D01*
X152865526Y-129827835D01*
X152900000Y-129610181D01*
X152900000Y-129389818D01*
X152865526Y-129172164D01*
X152797432Y-128962589D01*
X152697388Y-128766243D01*
X152651066Y-128702485D01*
X152651065Y-128702485D01*
X151942137Y-129411413D01*
X151919333Y-129326306D01*
X151860090Y-129223694D01*
X151776306Y-129139910D01*
X151673694Y-129080667D01*
X151588583Y-129057861D01*
X152297513Y-128348932D01*
X152233756Y-128302611D01*
X152037410Y-128202567D01*
X151827835Y-128134473D01*
X151610181Y-128100000D01*
X151389819Y-128100000D01*
X151172164Y-128134473D01*
X150962589Y-128202567D01*
X150766233Y-128302616D01*
X150702485Y-128348931D01*
X150702485Y-128348932D01*
X151411414Y-129057861D01*
X151326306Y-129080667D01*
X151223694Y-129139910D01*
X151139910Y-129223694D01*
X151080667Y-129326306D01*
X151057861Y-129411414D01*
X150348932Y-128702485D01*
X150348931Y-128702485D01*
X150302616Y-128766233D01*
X150202567Y-128962589D01*
X150134473Y-129172164D01*
X150100000Y-129389818D01*
X150100000Y-129610181D01*
X150134473Y-129827835D01*
X150202567Y-130037410D01*
X150302611Y-130233756D01*
X150348932Y-130297513D01*
X151057861Y-129588584D01*
X151080667Y-129673694D01*
X151139910Y-129776306D01*
X151223694Y-129860090D01*
X151326306Y-129919333D01*
X151411414Y-129942137D01*
X150750370Y-130603181D01*
X150689047Y-130636666D01*
X150662690Y-130639500D01*
X150552130Y-130639500D01*
X150552123Y-130639501D01*
X150492516Y-130645908D01*
X150357671Y-130696202D01*
X150357664Y-130696206D01*
X150242455Y-130782452D01*
X150242452Y-130782455D01*
X150156206Y-130897664D01*
X150156202Y-130897671D01*
X150105908Y-131032517D01*
X150099501Y-131092116D01*
X150099500Y-131092135D01*
X144500500Y-131092135D01*
X144500500Y-114431947D01*
X148050000Y-114431947D01*
X148050000Y-114668052D01*
X148086934Y-114901247D01*
X148159897Y-115125802D01*
X148267087Y-115336174D01*
X148327338Y-115419104D01*
X148327340Y-115419105D01*
X149067037Y-114679408D01*
X149084075Y-114742993D01*
X149149901Y-114857007D01*
X149242993Y-114950099D01*
X149357007Y-115015925D01*
X149420590Y-115032962D01*
X148680893Y-115772658D01*
X148763828Y-115832914D01*
X148974197Y-115940102D01*
X149198752Y-116013065D01*
X149198751Y-116013065D01*
X149431948Y-116050000D01*
X149668052Y-116050000D01*
X149901247Y-116013065D01*
X150125802Y-115940102D01*
X150336163Y-115832918D01*
X150336169Y-115832914D01*
X150419104Y-115772658D01*
X150419105Y-115772658D01*
X149679408Y-115032962D01*
X149742993Y-115015925D01*
X149857007Y-114950099D01*
X149950099Y-114857007D01*
X150015925Y-114742993D01*
X150032962Y-114679409D01*
X150772658Y-115419105D01*
X150772658Y-115419104D01*
X150832914Y-115336169D01*
X150832918Y-115336163D01*
X150940102Y-115125802D01*
X151013065Y-114901247D01*
X151050000Y-114668052D01*
X151050000Y-114431947D01*
X151013065Y-114198752D01*
X150940102Y-113974197D01*
X150832914Y-113763828D01*
X150772658Y-113680894D01*
X150772658Y-113680893D01*
X150032962Y-114420590D01*
X150015925Y-114357007D01*
X149950099Y-114242993D01*
X149857007Y-114149901D01*
X149742993Y-114084075D01*
X149679409Y-114067037D01*
X150419105Y-113327340D01*
X150419104Y-113327338D01*
X150336174Y-113267087D01*
X150125802Y-113159897D01*
X149901247Y-113086934D01*
X149901248Y-113086934D01*
X149668052Y-113050000D01*
X149431948Y-113050000D01*
X149198752Y-113086934D01*
X148974197Y-113159897D01*
X148763830Y-113267084D01*
X148680894Y-113327340D01*
X149420591Y-114067037D01*
X149357007Y-114084075D01*
X149242993Y-114149901D01*
X149149901Y-114242993D01*
X149084075Y-114357007D01*
X149067037Y-114420591D01*
X148327340Y-113680894D01*
X148267084Y-113763830D01*
X148159897Y-113974197D01*
X148086934Y-114198752D01*
X148050000Y-114431947D01*
X144500500Y-114431947D01*
X144500500Y-94631947D01*
X153250000Y-94631947D01*
X153250000Y-94868052D01*
X153286934Y-95101247D01*
X153359897Y-95325802D01*
X153467087Y-95536174D01*
X153527338Y-95619104D01*
X153527340Y-95619105D01*
X154226212Y-94920233D01*
X154237482Y-94962292D01*
X154309890Y-95087708D01*
X154412292Y-95190110D01*
X154537708Y-95262518D01*
X154579765Y-95273787D01*
X153880893Y-95972658D01*
X153963828Y-96032914D01*
X154174197Y-96140102D01*
X154398752Y-96213065D01*
X154398751Y-96213065D01*
X154631948Y-96250000D01*
X154868052Y-96250000D01*
X155101247Y-96213065D01*
X155325802Y-96140102D01*
X155536163Y-96032918D01*
X155536169Y-96032914D01*
X155619104Y-95972658D01*
X155619105Y-95972658D01*
X154920233Y-95273787D01*
X154962292Y-95262518D01*
X155087708Y-95190110D01*
X155190110Y-95087708D01*
X155262518Y-94962292D01*
X155273787Y-94920234D01*
X155972658Y-95619105D01*
X155972658Y-95619104D01*
X156032914Y-95536169D01*
X156032918Y-95536163D01*
X156140102Y-95325802D01*
X156213065Y-95101247D01*
X156250000Y-94868052D01*
X156250000Y-94631947D01*
X159750000Y-94631947D01*
X159750000Y-94868052D01*
X159786934Y-95101247D01*
X159859897Y-95325802D01*
X159967087Y-95536174D01*
X160027338Y-95619104D01*
X160027340Y-95619105D01*
X160726212Y-94920233D01*
X160737482Y-94962292D01*
X160809890Y-95087708D01*
X160912292Y-95190110D01*
X161037708Y-95262518D01*
X161079765Y-95273787D01*
X160380893Y-95972658D01*
X160463828Y-96032914D01*
X160674197Y-96140102D01*
X160898752Y-96213065D01*
X160898751Y-96213065D01*
X161131948Y-96250000D01*
X161368052Y-96250000D01*
X161601247Y-96213065D01*
X161825802Y-96140102D01*
X162036163Y-96032918D01*
X162036169Y-96032914D01*
X162119104Y-95972658D01*
X162119105Y-95972658D01*
X161420233Y-95273787D01*
X161462292Y-95262518D01*
X161587708Y-95190110D01*
X161690110Y-95087708D01*
X161762518Y-94962292D01*
X161773787Y-94920233D01*
X162472658Y-95619105D01*
X162472658Y-95619104D01*
X162532914Y-95536169D01*
X162532918Y-95536163D01*
X162640102Y-95325802D01*
X162713065Y-95101247D01*
X162750000Y-94868052D01*
X162750000Y-94631947D01*
X162713065Y-94398752D01*
X162640102Y-94174197D01*
X162532914Y-93963828D01*
X162472658Y-93880894D01*
X162472658Y-93880893D01*
X161773787Y-94579765D01*
X161762518Y-94537708D01*
X161690110Y-94412292D01*
X161587708Y-94309890D01*
X161462292Y-94237482D01*
X161420234Y-94226212D01*
X162119105Y-93527340D01*
X162119104Y-93527338D01*
X162036174Y-93467087D01*
X161825802Y-93359897D01*
X161601247Y-93286934D01*
X161601248Y-93286934D01*
X161368052Y-93250000D01*
X161131948Y-93250000D01*
X160898752Y-93286934D01*
X160674197Y-93359897D01*
X160463830Y-93467084D01*
X160380894Y-93527340D01*
X161079766Y-94226212D01*
X161037708Y-94237482D01*
X160912292Y-94309890D01*
X160809890Y-94412292D01*
X160737482Y-94537708D01*
X160726212Y-94579766D01*
X160027340Y-93880894D01*
X159967084Y-93963830D01*
X159859897Y-94174197D01*
X159786934Y-94398752D01*
X159750000Y-94631947D01*
X156250000Y-94631947D01*
X156213065Y-94398752D01*
X156140102Y-94174197D01*
X156032914Y-93963828D01*
X155972658Y-93880894D01*
X155972658Y-93880893D01*
X155273787Y-94579765D01*
X155262518Y-94537708D01*
X155190110Y-94412292D01*
X155087708Y-94309890D01*
X154962292Y-94237482D01*
X154920234Y-94226212D01*
X155619105Y-93527340D01*
X155619104Y-93527339D01*
X155536174Y-93467087D01*
X155325802Y-93359897D01*
X155101247Y-93286934D01*
X155101248Y-93286934D01*
X154868052Y-93250000D01*
X154631948Y-93250000D01*
X154398752Y-93286934D01*
X154174197Y-93359897D01*
X153963830Y-93467084D01*
X153880894Y-93527340D01*
X154579766Y-94226212D01*
X154537708Y-94237482D01*
X154412292Y-94309890D01*
X154309890Y-94412292D01*
X154237482Y-94537708D01*
X154226212Y-94579765D01*
X153527340Y-93880894D01*
X153467084Y-93963830D01*
X153359897Y-94174197D01*
X153286934Y-94398752D01*
X153250000Y-94631947D01*
X144500500Y-94631947D01*
X144500500Y-89124500D01*
X144520185Y-89057461D01*
X144572989Y-89011706D01*
X144624500Y-89000500D01*
X193375500Y-89000500D01*
X193442539Y-89020185D01*
G37*
%TD.AperFunction*%
%TD*%
M02*
