M48
; DRILL file KiCad 10.0.0 date 2026-10-05T23:20:26
; FORMAT={-:-/ absolute / metric / decimal}
; #@! TF.CreationDate,2026-10-05T23:20:26+05:30
; #@! TF.GenerationSoftware,Kicad,Pcbnew,10.0.0
; #@! TF.FileFunction,Plated,1,2,PTH
FMAT,2
METRIC
; #@! TA.AperFunction,Plated,PTH,ComponentDrill
T1C0.800
; #@! TA.AperFunction,Plated,PTH,ComponentDrill
T2C0.900
; #@! TA.AperFunction,Plated,PTH,ComponentDrill
T3C1.000
; #@! TA.AperFunction,Plated,PTH,ComponentDrill
T4C1.100
%
G90
G05
T1
X160.19Y-131.5
X167.81Y-131.5
T2
X151.5Y-129.5
X151.5Y-132.04
T3
X149.55Y-114.55
X157.15Y-114.55
X173.5Y-101.42
X173.5Y-103.96
X173.5Y-106.5
X173.5Y-109.04
X173.5Y-111.58
X173.5Y-114.12
X173.5Y-116.66
X173.5Y-119.2
X173.5Y-121.74
X173.5Y-124.28
X173.5Y-126.82
X173.5Y-129.36
X173.5Y-131.9
X173.5Y-134.44
X173.5Y-136.98
X188.74Y-101.42
X188.74Y-103.96
X188.74Y-106.5
X188.74Y-109.04
X188.74Y-111.58
X188.74Y-114.12
X188.74Y-116.66
X188.74Y-119.2
X188.74Y-121.74
X188.74Y-124.28
X188.74Y-126.82
X188.74Y-129.36
X188.74Y-131.9
X188.74Y-134.44
X188.74Y-136.98
T4
X154.75Y-94.75
X154.75Y-99.25
X161.25Y-94.75
X161.25Y-99.25
M30
