%TF.GenerationSoftware,KiCad,Pcbnew,10.0.0*%
%TF.CreationDate,2026-10-05T23:18:50+05:30*%
%TF.ProjectId,Driver_Drowsiness_System,44726976-6572-45f4-9472-6f7773696e65,rev?*%
%TF.SameCoordinates,Original*%
%TF.FileFunction,Copper,L2,Bot*%
%TF.FilePolarity,Positive*%
%FSLAX46Y46*%
G04 Gerber Fmt 4.6, Leading zero omitted, Abs format (unit mm)*
G04 Created by KiCad (PCBNEW 10.0.0) date 2026-10-05 23:18:50*
%MOMM*%
%LPD*%
G01*
G04 APERTURE LIST*
%TA.AperFunction,ComponentPad*%
%ADD10R,1.600000X1.600000*%
%TD*%
%TA.AperFunction,ComponentPad*%
%ADD11O,1.600000X1.600000*%
%TD*%
%TA.AperFunction,ComponentPad*%
%ADD12C,1.600000*%
%TD*%
%TA.AperFunction,ComponentPad*%
%ADD13R,1.800000X1.800000*%
%TD*%
%TA.AperFunction,ComponentPad*%
%ADD14C,1.800000*%
%TD*%
%TA.AperFunction,ComponentPad*%
%ADD15C,2.000000*%
%TD*%
%TA.AperFunction,ComponentPad*%
%ADD16R,2.000000X2.000000*%
%TD*%
G04 APERTURE END LIST*
D10*
%TO.P,A1,1,D1/TX_1*%
%TO.N,unconnected-(A1-D1{slash}TX-Pad1)*%
X173500000Y-101420000D03*
D11*
%TO.P,A1,2,D0/RX_2*%
%TO.N,unconnected-(A1-D0{slash}RX-Pad2)*%
X173500000Y-103960000D03*
%TO.P,A1,3,~{RESET}_3*%
%TO.N,unconnected-(A1-~{RESET}-Pad3)*%
X173500000Y-106500000D03*
%TO.P,A1,4,GND_4*%
%TO.N,unconnected-(A1-GND-Pad4)*%
X173500000Y-109040000D03*
%TO.P,A1,5,D2_5*%
%TO.N,Net-(A1-D2)*%
X173500000Y-111580000D03*
%TO.P,A1,6,D3_6*%
%TO.N,unconnected-(A1-D3-Pad6)*%
X173500000Y-114120000D03*
%TO.P,A1,7,D4_7*%
%TO.N,unconnected-(A1-D4-Pad7)*%
X173500000Y-116660000D03*
%TO.P,A1,8,D5_8*%
%TO.N,unconnected-(A1-D5-Pad8)*%
X173500000Y-119200000D03*
%TO.P,A1,9,D6_9*%
%TO.N,unconnected-(A1-D6-Pad9)*%
X173500000Y-121740000D03*
%TO.P,A1,10,D7_10*%
%TO.N,unconnected-(A1-D7-Pad10)*%
X173500000Y-124280000D03*
%TO.P,A1,11,D8_11*%
%TO.N,Net-(A1-D8)*%
X173500000Y-126820000D03*
%TO.P,A1,12,D9_12*%
%TO.N,Net-(A1-D9)*%
X173500000Y-129360000D03*
%TO.P,A1,13,D10_13*%
%TO.N,unconnected-(A1-D10-Pad13)*%
X173500000Y-131900000D03*
%TO.P,A1,14,D11_14*%
%TO.N,unconnected-(A1-D11-Pad14)*%
X173500000Y-134440000D03*
%TO.P,A1,15,D12_15*%
%TO.N,unconnected-(A1-D12-Pad15)*%
X173500000Y-136980000D03*
%TO.P,A1,16,D13_16*%
%TO.N,unconnected-(A1-D13-Pad16)*%
X188740000Y-136980000D03*
%TO.P,A1,17,3V3_17*%
%TO.N,unconnected-(A1-3V3-Pad17)*%
X188740000Y-134440000D03*
%TO.P,A1,18,AREF_18*%
%TO.N,unconnected-(A1-AREF-Pad18)*%
X188740000Y-131900000D03*
%TO.P,A1,19,A0_19*%
%TO.N,unconnected-(A1-A0-Pad19)*%
X188740000Y-129360000D03*
%TO.P,A1,20,A1_20*%
%TO.N,unconnected-(A1-A1-Pad20)*%
X188740000Y-126820000D03*
%TO.P,A1,21,A2_21*%
%TO.N,unconnected-(A1-A2-Pad21)*%
X188740000Y-124280000D03*
%TO.P,A1,22,A3_22*%
%TO.N,unconnected-(A1-A3-Pad22)*%
X188740000Y-121740000D03*
%TO.P,A1,23,A4_23*%
%TO.N,unconnected-(A1-A4-Pad23)*%
X188740000Y-119200000D03*
%TO.P,A1,24,A5_24*%
%TO.N,unconnected-(A1-A5-Pad24)*%
X188740000Y-116660000D03*
%TO.P,A1,25,A6_25*%
%TO.N,unconnected-(A1-A6-Pad25)*%
X188740000Y-114120000D03*
%TO.P,A1,26,A7_26*%
%TO.N,unconnected-(A1-A7-Pad26)*%
X188740000Y-111580000D03*
%TO.P,A1,27,+5V_27*%
%TO.N,unconnected-(A1-+5V-Pad27)*%
X188740000Y-109040000D03*
%TO.P,A1,28,~{RESET}_28*%
%TO.N,unconnected-(A1-~{RESET}-Pad28)*%
X188740000Y-106500000D03*
%TO.P,A1,29,GND_29*%
%TO.N,unconnected-(A1-GND-Pad29)*%
X188740000Y-103960000D03*
%TO.P,A1,30,VIN_30*%
%TO.N,unconnected-(A1-VIN-Pad30)*%
X188740000Y-101420000D03*
%TD*%
D12*
%TO.P,R1,1*%
%TO.N,Net-(A1-D8)*%
X167810000Y-131500000D03*
%TO.P,R1,2*%
%TO.N,Net-(D1-K)*%
X160190000Y-131500000D03*
%TD*%
D13*
%TO.P,D1,1,K_1*%
%TO.N,Net-(D1-K)*%
X151500000Y-132040000D03*
D14*
%TO.P,D1,2,A_2*%
%TO.N,GND*%
X151500000Y-129500000D03*
%TD*%
D15*
%TO.P,SW1,1,1_1*%
%TO.N,GND*%
X154750000Y-94750000D03*
X161250000Y-94750000D03*
%TO.P,SW1,2,2_2*%
%TO.N,Net-(A1-D2)*%
X154750000Y-99250000D03*
X161250000Y-99250000D03*
%TD*%
D16*
%TO.P,BZ1,1,+_1*%
%TO.N,Net-(A1-D9)*%
X157150000Y-114550000D03*
D15*
%TO.P,BZ1,2,-_2*%
%TO.N,GND*%
X149550000Y-114550000D03*
%TD*%
M02*
